<?xml version="1.0" encoding="utf-8"?>
<svg viewBox="0 0 3677.43303 3706.0645" xmlns="http://www.w3.org/2000/svg">
    <g>
        <title>.id(brain)</title>
        <path d="M2875.95155,1131.75975c44.64366,91.33313,172.41248,52.33929,224.04166,5.38594,52.33649-31.85884,78.90122-93.44515,104.75679-146.05374,30.14709-61.34059,48.36855-128.13108,52.80618-196.60829,3.51008-54.16417-3.65866-108.6805-8.73478-153.99375-28.61005-255.39476-146.38493-363.36256-199.50982-410.16624-48.80482-42.99764-160.68162-84.73343-173.36003-34.98992-12.67841-49.74352-124.55521-8.00772-173.36003,34.98992-53.12489,46.80368-170.89978,154.77148-199.50982,410.16624-5.07612,45.31325-12.24486,99.82958-8.73478,153.99375,4.43763,68.47721,22.65909,135.26769,52.80618,196.60829,25.85557,52.60859,52.4203,114.19491,104.75679,146.05374,51.62919,46.95335,179.398,85.94719,224.04166-5.38594Z" fill="#fbeadf" stroke="#c4836b" stroke-linejoin="round" stroke-width=".75"/>
        <path d="M2880.77365,204.06259c.63686,13.87482,19.09671,182.89299,4.5415,190.32259-14.55521,7.4296-9.23491,49.17686-3.19813,120.64215,1.70133,20.14083-1.34337,625.46126-1.34337,625.46126" fill="none" stroke="#c4836b" stroke-miterlimit="10" stroke-width=".5"/>
        <path d="M2880.77365,236.12155c-33.10646-1.2721-53.58991,12.18312-58.46692,17.64804-4.87701,5.46492-30.23747-4.80254-40.9669,14.96223" fill="none" stroke="#c4836b" stroke-miterlimit="10" stroke-width=".5"/>
        <path d="M2847.66719,283.01172c-6.82782,8.41107-13.65563,17.64679-12.68023,23.27065-31.21287-.22855-29.26207,8.01958-29.26207,8.01958" fill="none" stroke="#c4836b" stroke-miterlimit="10" stroke-width=".5"/>
        <path d="M2759.88098,298.65684c2.92621,20.07722,1.9508,76.55531-27.31126,99.52489-29.26207,22.96958-24.38506,59.89799-24.38506,59.89799" fill="none" stroke="#c4836b" stroke-miterlimit="10" stroke-width=".5"/>
        <path d="M2646.73431,512.83912c13.65563-14.63103,25.36046-17.31072,25.36046-17.31072-14.63103-8.04974,29.08705-52.21659,62.33824-37.44868,33.25119,14.76791,22.52176,45.98078,22.52176,45.98078,0,0-29.26207,87.15987-69.25356,116.73511" fill="none" stroke="#c4836b" stroke-miterlimit="10" stroke-width=".5"/>
        <path d="M2697.45523,495.52839c0,5.6059-9.75402,9.50751-11.70483,18.28613-1.9508,8.77862,4.87701,37.97404,0,44.34748-4.87701,6.37344-43.8931-11.68011-53.64713.27287-9.75402,11.95298-6.82782,26.93818-6.82782,26.93818" fill="none" stroke="#c4836b" stroke-miterlimit="10" stroke-width=".5"/>
        <path d="M2890.10079,378.36827c-9.26993-22.56893-39.37361-53.08327-68.76947-16.095-7.80238,9.81759-8.77862,44.24699-8.77862,44.24699" fill="none" stroke="#c4836b" stroke-miterlimit="10" stroke-width=".5"/>
        <path d="M2817.59513,370.09697c-17.72266,8.13663-29.42749,22.52421-30.40289,45.08019" fill="none" stroke="#c4836b" stroke-miterlimit="10" stroke-width=".5"/>
        <path d="M2945.20742,267.39483c-11.70483,7.44612-52.57509,45.31725-55.10662,31.262" fill="none" stroke="#c4836b" stroke-miterlimit="10" stroke-width=".5"/>
        <path d="M2940.33041,350.05318c-21.45885,10.62317-32.9528,16.15521-38.42295,28.99563" fill="none" stroke="#c4836b" stroke-miterlimit="10" stroke-width=".5"/>
        <path d="M2982.27271,310.71479s-14.63103,11.92088-19.50805,12.89628c0,0,30.23747,21.50491,37.06529,40.98993,0,0,11.70483-34.16211,3.84029-50.29904-7.86454-16.13693-3.84029-18.00215-.91408-21.3564,2.92621-3.35425,0-45.41587-26.33586-63.07826" fill="none" stroke="#c4836b" stroke-miterlimit="10" stroke-width=".5"/>
        <path d="M3040.79684,282.43457c7.80322,15.81603,31.21287,45.89182,24.38506,62.5545,9.75402.08084,53.64713,5.26644,58.52414,25.10789" fill="none" stroke="#c4836b" stroke-miterlimit="10" stroke-width=".5"/>
        <path d="M2945.20742,426.81693c-4.87701,9.9408-8.77862,22.62103-4.87701,41.15368" fill="none" stroke="#c4836b" stroke-miterlimit="10" stroke-width=".5"/>
        <path d="M2938.73791,447.39377c-10.11233,2.04419-30.59578,7.68769-30.59578,7.68769" fill="none" stroke="#c4836b" stroke-miterlimit="10" stroke-width=".5"/>
        <path d="M3082.25144,424.29695c-20.97115-17.77668-71.69207-30.47296-88.27391,2.51999-6.66852,13.26838,8.77862,40.13445,0,50.88579-8.77862,10.75134-30.23747,17.57916-38.04069,40.98881-7.80322,23.40966-13.96418,66.68152-13.96418,66.68152" fill="none" stroke="#c4836b" stroke-miterlimit="10" stroke-width=".5"/>
        <path d="M3152.96811,406.52026c-10.72943,8.77862-35.11448,22.21208-33.16368,35.0034,15.60644,12.79132,22.32375,30.34856,16.52659,45.955" fill="none" stroke="#c4836b" stroke-miterlimit="10" stroke-width=".5"/>
        <path d="M3101.27179,475.39413c-25.36046-24.00536-37.06529-29.15612-39.9915-17.31442" fill="none" stroke="#c4836b" stroke-miterlimit="10" stroke-width=".5"/>
        <path d="M3181.25478,424.29695c6.82782,16.3624,7.36384,81.48062-18.53264,102.1978-19.50805,15.60644-32.18828,0-50.72092,18.53264" fill="none" stroke="#c4836b" stroke-miterlimit="10" stroke-width=".5"/>
        <path d="M3055.42788,480.97733c0,16.25535,26.82356,37.65153,26.82356,60.08578s-16.09414,60.08578-16.09414,60.08578" fill="none" stroke="#c4836b" stroke-miterlimit="10" stroke-width=".5"/>
        <path d="M3020.3134,495.85249c0,9.18341,6.82782,20.88824,6.82782,20.88824-1.9508,16.58184-25.36046,49.00237-30.23747,72.2959s-5.85241,73.03905-6.82782,77.91606" fill="none" stroke="#c4836b" stroke-miterlimit="10" stroke-width=".5"/>
        <path d="M3040.79684,509.91291l-13.65563,6.82782" fill="none" stroke="#c4836b" stroke-miterlimit="10" stroke-width=".5"/>
        <path d="M3227.09869,541.06312c2.92621,24.44773-30.27188,65.41462-40.9841,66.39003-10.71222.9754-28.92591-3.28817-49.78356,0-12.22486,1.92722-20.01409,3.52469-23.35441,38.50576-2.59825,27.20988-5.25073,43.78837-16.28021,52.83579-15.42037,12.64923-55.89956,10.98967-55.89956,10.98967" fill="none" stroke="#c4836b" stroke-miterlimit="10" stroke-width=".5"/>
        <path d="M3152.96811,577.81146c-1.9508,20.86306-16.63709,29.64168-16.63709,29.64168" fill="none" stroke="#c4836b" stroke-miterlimit="10" stroke-width=".5"/>
        <path d="M3068.83966,763.21276c24.62891,8.10797,50.85427-6.9962,50.85427-6.9962,0,0,50.81422-13.40722,54.72443-67.42969" fill="none" stroke="#c4836b" stroke-miterlimit="10" stroke-width=".5"/>
        <path d="M3234.90191,612.80179c-14.63103,19.93497-11.70483,33.15711-7.62134,39.58444,4.71398,7.41972,24.20318,16.49532,26.15399,43.32986" fill="none" stroke="#c4836b" stroke-miterlimit="10" stroke-width=".5"/>
        <path d="M3076.9812,858.33905s44.64781,7.01805,57.0575-30.93344c12.29924-37.61369,35.51125-61.57147,60.87171-64.19289" fill="none" stroke="#c4836b" stroke-miterlimit="10" stroke-width=".5"/>
        <path d="M3194.91041,671.84364c-11.70483,11.70483-19.50805,22.55968-32.18828,15.66915" fill="none" stroke="#c4836b" stroke-miterlimit="10" stroke-width=".5"/>
        <path d="M3233.9265,799.00763c3.90161,29.86184,9.75402,30.19296,9.75402,37.34292s-2.92621,2.27294-9.75402,27.6334" fill="none" stroke="#c4836b" stroke-miterlimit="10" stroke-width=".5"/>
        <path d="M3253.43455,811.76752c.9754,4.42172-9.75402,24.58303-9.75402,24.58303" fill="none" stroke="#c4836b" stroke-miterlimit="10" stroke-width=".5"/>
        <path d="M2701.09299,823.69779c-19.50805-.55281-26.82356,37.44338-26.82356,37.44338,0,0-18.22682,22.47725-51.78726,1.50685-33.56044-20.9704-35.51125-61.57147-60.87171-64.19289" fill="none" stroke="#c4836b" stroke-miterlimit="10" stroke-width=".5"/>
        <path d="M2883.43319,572.06753c11.0533,10.02515,34.22091,6.71861,34.22091,6.71861" fill="none" stroke="#c4836b" stroke-miterlimit="10" stroke-width=".5"/>
        <path d="M2875.9739,446.99946c-10.74947-20.18253-29.28212-23.14413-40.98694-5.4758" fill="none" stroke="#c4836b" stroke-miterlimit="10" stroke-width=".5"/>
        <path d="M2523.37362,556.34221c-4.7854,22.75209,48.25471,78.26851,65.81195,76.39455,17.55724-1.87396,48.77012,25.35369,51.69632,39.53883,2.92621,14.18514,11.60996,50.21386,91.46315,43.70585" fill="none" stroke="#c4836b" stroke-miterlimit="10" stroke-width=".5"/>
        <path d="M2578.45615,645.9589c-3.90161,12.21516-3.90161,48.27639,5.85241,63.89716,9.75402,15.62077,0,29.40721,0,29.40721" fill="none" stroke="#c4836b" stroke-miterlimit="10" stroke-width=".5"/>
        <path d="M2588.64368,725.02362c9.32051-1.4976,35.65637-11.06342,48.3366,7.37512,12.68023,18.43854,24.17931,41.71132,24.17931,41.71132,0,0,37.27104-18.42701,62.6315,2.07206" fill="none" stroke="#c4836b" stroke-miterlimit="10" stroke-width=".5"/>
        <path d="M2517.9812,630.11217c11.70483,50.64182,58.0374,31.9635,58.0374,31.9635" fill="none" stroke="#c4836b" stroke-miterlimit="10" stroke-width=".5"/>
        <path d="M2541.59994,662.52466c-7.0369,7.35423-20.27436,61.18957,0,69.87408" fill="none" stroke="#c4836b" stroke-miterlimit="10" stroke-width=".5"/>
        <path d="M2506.27637,765.60478c23.40966,34.97802,22.73819,65.54662,24.53702,70.74577s26.18582,53.96927,45.20521,54.94467" fill="none" stroke="#c4836b" stroke-miterlimit="10" stroke-width=".5"/>
        <path d="M2656.21739,370.09697c7.09876,20.81686,18.5801,52.47926-4.23011,68.34864" fill="none" stroke="#c4836b" stroke-miterlimit="10" stroke-width=".5"/>
        <path d="M2758.60542,577.81146c9.07877-12.30062,17.85739-2.67193,22.73441-36.74835" fill="none" stroke="#c4836b" stroke-miterlimit="10" stroke-width=".5"/>
        <path d="M2774.66186,564.02704c15.45659,7.33622,36.91544,18.88736,37.89085,68.70972" fill="none" stroke="#c4836b" stroke-miterlimit="10" stroke-width=".5"/>
        <path d="M2882.11702,515.02733c-13.96638,19.27064-25.67121,2.16671-38.35144,22.9112" fill="none" stroke="#c4836b" stroke-miterlimit="10" stroke-width=".5"/>
        <path d="M2561.61046,441.52366c13.91948,18.64373,16.84761,42.21921,14.40814,54.32883" fill="none" stroke="#c4836b" stroke-miterlimit="10" stroke-width=".5"/>
        <path d="M2624.86396,463.68063c-13.24413,12.0932-25.92436,12.25902-31.77678,32.17186-5.85241,19.91284-27.70993,52.53426-16.29347,76.21504" fill="none" stroke="#c4836b" stroke-miterlimit="10" stroke-width=".5"/>
        <path d="M2573.56035,556.34221c-4.85823,3.31621-7.33672,10.57718-11.94989,15.72532" fill="none" stroke="#c4836b" stroke-miterlimit="10" stroke-width=".5"/>
        <path d="M2616.49684,620.08215c-11.00759,16.63306-17.29372,14.05721-17.29372,14.05721" fill="none" stroke="#c4836b" stroke-miterlimit="10" stroke-width=".5"/>
        <path d="M2555.53419,747.59127c9.75402,4.70912,15.11874,4.70912,15.11874,4.70912-1.30054,10.89199-1.9508,13.49307,0,29.0995" fill="none" stroke="#c4836b" stroke-miterlimit="10" stroke-width=".5"/>
        <path d="M2983.9248,883.99731c57.04686,5.00665,229.26377,90.20102,168.63697,217.4951-.08264.17352-.18491.34021-.30237.49234-1.36572,1.76896-2.7542,3.51639-4.16669,5.24035-12.27632,14.98354-26.36569,28.19511-43.08523,38.37282-51.62919,46.95335-179.398,85.94719-224.04166-5.38594" fill="url(#radial-gradient-33)" stroke-width="0"/>
        <path d="M2637.75968,899.19767c-15.60644,13.68989-47.97659,24.91319-60.07818,14.42453" fill="none" stroke="#c4836b" stroke-miterlimit="10" stroke-width=".5"/>
        <path d="M2611.2194,913.97228c-4.6726,11.59551-2.47116,31.89104,6.18214,45.15293" fill="none" stroke="#c4836b" stroke-miterlimit="10" stroke-width=".5"/>
        <path d="M3186.11713,824.74664c5.85241,12.00741,4.14592,41.19116,0,52.9743-9.26632,26.33586-63.40115,40.79093-63.40115,40.79093" fill="none" stroke="#c4836b" stroke-miterlimit="10" stroke-width=".5"/>
        <path d="M3204.8122,927.02361c-11.15957,19.88716-8.99736,37.01239-52.2751,35.33013" fill="none" stroke="#c4836b" stroke-miterlimit="10" stroke-width=".5"/>
        <path d="M3218.3415,955.17035c-16.8587,4.6895-30.39923.10736-30.39923.10736" fill="none" stroke="#c4836b" stroke-miterlimit="10" stroke-width=".5"/>
        <path d="M2517.24965,891.63967c5.20215,11.29383,27.96153,47.05858,45.84391,36.65429-7.55937,58.632,19.23758,79.19369,19.23758,79.19369" fill="none" stroke="#c4836b" stroke-miterlimit="10" stroke-width=".5"/>
        <path d="M2991.56756,885.33835c-8.42187,43.24479-89.16318,83.9176-109.3385,40.25962" fill="none" stroke="#efb899" stroke-miterlimit="10" stroke-width=".5"/>
        <path d="M3003.39546,888.58611c-2.42595,49.15356-95.46072,100.17599-121.25737,50.44252" fill="none" stroke="#efb899" stroke-miterlimit="10" stroke-width=".5"/>
        <path d="M3014.5222,891.30962c4.85941,54.77465-100.69435,117.15885-132.47507,61.14967" fill="none" stroke="#efb899" stroke-miterlimit="10" stroke-width=".5"/>
        <path d="M3025.25846,895.13297c11.05791,59.759-105.5291,132.69879-143.30229,70.75699" fill="none" stroke="#efb899" stroke-miterlimit="10" stroke-width=".5"/>
        <path d="M3035.8655,899.43425c16.68605,64.40374-110.17069,147.62428-154.0003,79.88638" fill="none" stroke="#efb899" stroke-miterlimit="10" stroke-width=".5"/>
        <path d="M3046.51944,904.25964c21.50094,68.79403-114.85063,161.86612-164.74519,88.49165" fill="none" stroke="#efb899" stroke-miterlimit="10" stroke-width=".5"/>
        <path d="M3057.36332,909.69711c25.24056,73.00295-119.77347,175.29635-175.68004,96.48484" fill="none" stroke="#efb899" stroke-miterlimit="10" stroke-width=".5"/>
        <path d="M3068.51008,915.8616c27.64383,77.09478-125.11882,187.74943-186.91776,103.75101" fill="none" stroke="#efb899" stroke-miterlimit="10" stroke-width=".5"/>
        <path d="M3080.04486,922.91711c28.42541,81.11966-131.05074,198.99342-198.54351,110.12617" fill="none" stroke="#efb899" stroke-miterlimit="10" stroke-width=".5"/>
        <path d="M3091.65657,930.00936c29.03788,85.1327-137.0447,210.18991-210.24618,116.46459" fill="none" stroke="#efb899" stroke-miterlimit="10" stroke-width=".5"/>
        <path d="M3104.3451,940.48196c24.21084,89.04386-145.08582,216.76941-223.02568,119.42265" fill="none" stroke="#efb899" stroke-miterlimit="10" stroke-width=".5"/>
        <path d="M3117.05458,951.98083c18.19056,92.83633-153.47516,221.95602-235.82612,121.35444" fill="none" stroke="#efb899" stroke-miterlimit="10" stroke-width=".5"/>
        <path d="M3129.79689,966.28559c8.91907,96.23785-162.76383,223.34208-248.65938,120.48035" fill="none" stroke="#efb899" stroke-miterlimit="10" stroke-width=".5"/>
        <path d="M3141.89411,979.96937c1.29775,99.49031-171.26357,225.59106-260.84758,120.22723" fill="none" stroke="#efb899" stroke-miterlimit="10" stroke-width=".5"/>
        <path d="M3153.12893,998.85574c-11.09466,101.53259-180.50865,220.83275-272.17336,114.77152" fill="none" stroke="#efb899" stroke-miterlimit="10" stroke-width=".5"/>
        <path d="M3161.9593,1022.84122c-26.10007,101.59304-188.95288,209.24966-281.09469,104.2167" fill="none" stroke="#efb899" stroke-miterlimit="10" stroke-width=".5"/>
        <path d="M3164.88634,1056.00088c-44.07973,97.19924-194.41153,185.34876-284.11269,84.4877" fill="none" stroke="#efb899" stroke-miterlimit="10" stroke-width=".5"/>
        <path d="M2782.0315,884.16511c-57.22702,2.11632-233.53062,78.49555-179.41653,208.69177.07376.17747.16748.34912.27709.507,1.27455,1.83574,2.57292,3.65113,3.89644,5.44429,11.50315,15.58499,24.90661,29.49195,41.09025,40.50187,49.1895,49.50336,174.82366,94.90653,224.02747,5.94709" fill="url(#radial-gradient-34)" stroke-width="0"/>
        <path d="M2774.33072,885.11806c6.22492,43.61525,84.80682,88.31783,107.16342,45.73561" fill="none" stroke="#efb899" stroke-miterlimit="10" stroke-width=".5"/>
        <path d="M2762.35375,887.76373c-.06205,49.21335,90.27438,104.8738,118.55226,56.50804" fill="none" stroke="#efb899" stroke-miterlimit="10" stroke-width=".5"/>
        <path d="M2751.10355,889.92126c-7.62226,54.45896,94.64278,122.09952,129.21434,67.76859" fill="none" stroke="#efb899" stroke-miterlimit="10" stroke-width=".5"/>
        <path d="M2740.18774,893.19695c-14.06482,59.12357,98.68574,137.864,139.54203,77.91099" fill="none" stroke="#efb899" stroke-miterlimit="10" stroke-width=".5"/>
        <path d="M2729.37682,896.95651c-19.92056,63.47785,102.56686,153.00506,149.76483,87.56952" fill="none" stroke="#efb899" stroke-miterlimit="10" stroke-width=".5"/>
        <path d="M2718.49257,901.23714c-24.95124,67.61912,106.52083,167.46527,160.06096,96.70698" fill="none" stroke="#efb899" stroke-miterlimit="10" stroke-width=".5"/>
        <path d="M2707.38766,906.11945c-28.89886,71.6336,110.75843,181.12721,170.57774,105.24275" fill="none" stroke="#efb899" stroke-miterlimit="10" stroke-width=".5"/>
        <path d="M2695.94352,911.71255c-31.50591,75.5987,115.4674,193.83459,181.43375,113.06774" fill="none" stroke="#efb899" stroke-miterlimit="10" stroke-width=".5"/>
        <path d="M2684.0668,918.17591c-32.48997,79.57892,120.82331,205.36408,192.72235,120.02247" fill="none" stroke="#efb899" stroke-miterlimit="10" stroke-width=".5"/>
        <path d="M2672.1114,924.67207c-33.30452,83.55587,126.24358,216.84927,204.08963,126.9444" fill="none" stroke="#efb899" stroke-miterlimit="10" stroke-width=".5"/>
        <path d="M2658.90966,934.48983c-28.68139,87.70606,133.94181,223.82686,216.70324,130.54473" fill="none" stroke="#efb899" stroke-miterlimit="10" stroke-width=".5"/>
        <path d="M2645.63513,945.33149c-22.86053,91.79802,142.05821,229.43096,229.38965,133.12116" fill="none" stroke="#efb899" stroke-miterlimit="10" stroke-width=".5"/>
        <path d="M2632.18595,958.97378c-13.77285,95.6639,151.26494,231.28482,242.2507,132.89696" fill="none" stroke="#efb899" stroke-miterlimit="10" stroke-width=".5"/>
        <path d="M2619.41243,972.02851c-6.3257,99.29749,159.64011,233.96062,254.4361,133.26032" fill="none" stroke="#efb899" stroke-miterlimit="10" stroke-width=".5"/>
        <path d="M2607.2372,990.32277c5.94762,101.96364,169.11392,229.67577,266.02321,128.38414" fill="none" stroke="#efb899" stroke-miterlimit="10" stroke-width=".5"/>
        <path d="M2597.20557,1013.83117c20.93079,102.78259,178.13292,218.53438,275.46672,118.29383" fill="none" stroke="#efb899" stroke-miterlimit="10" stroke-width=".5"/>
        <path d="M2592.60593,1046.80046c39.10958,99.30335,184.79287,194.93999,279.47823,98.74263" fill="none" stroke="#efb899" stroke-miterlimit="10" stroke-width=".5"/>
    </g>
    <g>
        <title>.id(brain_stem)</title>
        <path d="M2641.75018,1166.00543s.57764-16.32654,3.62309-47.59319c3.1036-31.86367,14.8973-38.06201,27.72553-38.47582,12.82823-.41381,33.51893,3.71545,53.382,7.43978,19.86307,3.72433,35.17418,1.86216,50.27839-.62072,4.96577,3.93123,13.13859,13.97509,14.58694,18.94086-16.13874-4.03469-49.96803-4.03469-63.93425-6.51757-13.94801-2.47965-27.62208-5.38845-40.65722-7.66443-10.59882-1.85059-22.46292-.12247-26.691,10.76804-6.82793,17.58709-5.58427,63.72306-5.58427,63.72306" fill="#f5d0b9" stroke="#c4836b" stroke-linejoin="round" stroke-width=".5"/>
        <path d="M2679.20034,1210.49455c-.41381-15.51802,3.20928-82.76263,5.69216-90.00437,2.47585-7.22122,11.27643-12.41442,22.75977-11.17298s39.20887,5.37958,51.62329,6.62102c12.41442,1.24144,13.03514,1.13799,25.1392-2.8967l11.37988,32.6913c-7.86246-13.44895-43.65737-19.86307-73.14161-21.72523-11.52728-.72804-21.31142-2.48288-24.72538,4.34505-3.41396,6.82793-4.96577,82.14191-4.96577,82.14191" fill="#f5d0b9" stroke="#c4836b" stroke-linejoin="round" stroke-width=".5"/>
        <path d="M3124.77671,1169.58049s.35566-16.16841-2.68979-47.43506c-3.1036-31.86367-13.03514-38.6916-25.86337-39.10542-12.82823-.41381-35.38109,4.34505-55.24416,8.06937-19.86307,3.72433-35.17418,1.86216-50.27839-.62072-4.96577,3.93123-13.24205,12.62133-14.69039,17.58709,18.20781-4.55195,52.25381-4.99126,64.34807-6.41412,14.06967-1.65526,27.31172-4.13814,40.34686-6.41412,10.59882-1.85059,20.80766-1.7866,25.03574,9.10391,6.82793,17.58709,8.17283,65.22905,8.17283,65.22905" fill="#f5d0b9" stroke="#c4836b" stroke-linejoin="round" stroke-width=".5"/>
        <path d="M3084.01604,1210.18421c.41381-15.51802-1.96624-84.10524-3.72433-91.5562-2.17252-9.20736-12.72478-11.37988-24.20812-10.13844-11.48334,1.24144-38.79506,6.20721-51.20947,7.44865-12.41442,1.24144-20.48379-.31036-32.58785-4.34505l-9.93153,34.55346c10.34535-11.17298,35.79491-16.75946,48.20932-18.00091,12.41442-1.24144,15.10421-1.65526,28.44971-4.75886,11.25003-2.61629,23.89775-5.58649,27.31172,1.24144,3.41396,6.82793,4.03469,57.41668,4.03469,65.17569s.82763,20.3802.82763,20.3802" fill="#f5d0b9" stroke="#c4836b" stroke-linejoin="round" stroke-width=".5"/>
        <path d="M2693.40129,791.24059s-7.36006,8.91874-8.91186,18.95373c-.82999,5.36727-4.60368,11.48334-7.03484,18.62163-1.74203,5.1149-1.51874,10.65473-1.25219,13.38436,1.5518,2.79324,4.96577,1.86216,11.7937,4.96577,6.82793,3.1036,18.11544,10.73492,34.13965,3.72433,4.96577-2.17252,5.40658.36526,15.20766,4.96577,7.60383,3.56915,11.94888,4.96577,11.94888,4.96577,2.01734,12.72478,10.08671,23.74257,15.6732,26.53582-.93108,3.87951-8.69009,8.53491-13.65586,19.08717-5.68862,12.08831-17.85691,50.27936-22.65637,56.79597-10.85321,14.73631-22.88409,25.78057-32.50723,42.17823-5.82797,9.93075-8.86002,21.33909-7.93574,32.81649,1.64462,20.42224,14.49009,32.24255,33.02545,30.74187,5.88649-.47659,11.77298-1.8909,17.65947-3.93838,0,9.31081,32.89821,24.82884,40.96758,39.10542,8.06937,14.27658,15.24864,38.94131,16.13874,47.17479,1.24144,11.48334,7.75901,24.82884,15.82838,39.10542,8.06937,14.27658,26.07028,104.64331,20.79415,147.1627-.82763,7.86246,13.44895,9.10391,13.44895,9.10391.62072,7.44865,12.0006,7.03484,16.96637,5.17267,1.93975,7.13829,16.13874,3.33447,16.13874,3.33447,0,0,15.75079,4.57972,16.13874-3.33447,4.96577,1.86216,16.75946,2.79324,17.38019-4.65541,0,0,13.03514-1.5518,13.03514-9.62117-5.27613-42.51938,12.72478-132.88612,20.79415-147.1627,8.06937-14.27658,14.58694-27.62208,15.82838-39.10542.89011-8.23348,8.06937-32.89821,16.13874-47.17479,8.06937-14.27658,40.96758-29.7946,40.96758-39.10542,5.88649,2.04747,11.77298,3.46179,17.65947,3.93838,18.53536,1.50067,31.38083-10.31964,33.02545-30.74187.92428-11.4774-2.10777-22.88574-7.93574-32.81649-9.62314-16.39767-21.65402-27.44192-32.50723-42.17823-4.79945-6.51661-16.96775-44.70766-22.65637-56.79597-4.96577-10.55226-9.31081-13.96622-12.72478-16.4491,10.24189-10.55226,12.72478-16.4491,14.74212-29.17388,0,0,6.20721.15518,13.81104-3.41396,9.80108-4.60051,8.37973-8.69009,13.3455-6.51757,16.02421,7.01059,27.31172-.62072,34.13965-3.72433,4.17079-1.89582,7.06774-2.28617,9.04452-2.93953,1.64321-.54311,2.79863-2.02364,2.96683-3.74608.26655-2.72963.48984-8.26947-1.25219-13.38436-2.43116-7.13829-6.20485-13.25436-7.03484-18.62163-1.5518-10.03499-1.24144-17.794-1.24144-17.794l-22.57272-44.56665c-1.05153-2.07609-3.2273-3.39196-5.54889-3.23039-10.90899.75922-21.92401,7.35042-27.74327,6.5191-6.51757-.93108-7.41861-17.20295-23.89775-27.00136-26.79445-15.93184-64.55497-21.41487-79.45228-13.03514-14.8973,8.37973-22.34595,22.34595-34.45001,21.41487-12.10406.93108-19.55271-13.03514-34.45001-21.41487-14.8973-8.37973-45.82989-1.03453-72.62435,14.8973-16.47914,9.79841-24.20812,24.20812-30.72568,25.1392-6.51757.93108-19.55271-7.44865-31.65677-6.51757l-16.32004,48.35562Z" fill="#fadfcd" stroke-width="0"/>
        <path d="M2925.73221,1337.58743c-5.27613-42.51938,12.72478-132.88612,20.79415-147.1627,8.06937-14.27658,14.58694-27.62208,15.82838-39.10542.89011-8.23348,8.06937-32.89821,16.13874-47.17479,8.06937-14.27658,40.96758-29.7946,40.96758-39.10542,5.88649,2.04747,11.77298,3.46179,17.65947,3.93838,18.53536,1.50067,31.38083-10.31964,33.02545-30.74187.92428-11.4774-2.10777-22.88574-7.93574-32.81649-9.62314-16.39767-21.65402-27.44192-32.50723-42.17823-4.79945-6.51661-16.96775-44.70766-22.65637-56.79597-4.96577-10.55226-9.31081-13.96622-12.72478-16.4491,10.24189-10.55226,12.72478-16.4491,14.74212-29.17388,0,0,6.20721.15518,13.81104-3.41396,9.80108-4.60051,8.37973-8.69009,13.3455-6.51757,16.02421,7.01059,27.31172-.62072,34.13965-3.72433,4.17079-1.89582,7.06774-2.28617,9.04452-2.93953,1.64321-.54311,2.79863-2.02364,2.96683-3.74608" fill="none" stroke="#c4836b" stroke-linecap="round" stroke-linejoin="round" stroke-width=".5"/>
        <path d="M2676.2024,842.20031c1.5518,2.79324,4.96577,1.86216,11.7937,4.96577,6.82793,3.1036,18.11544,10.73492,34.13965,3.72433,4.96577-2.17252,5.40658.36526,15.20766,4.96577,7.60383,3.56915,11.94888,4.96577,11.94888,4.96577,2.01734,12.72478,10.08671,23.74257,15.6732,26.53582-.93108,3.87951-8.69009,8.53491-13.65586,19.08717-5.68862,12.08831-17.85691,50.27936-22.65637,56.79597-10.85321,14.73631-22.88409,25.78057-32.50723,42.17823-5.82797,9.93075-8.86002,21.33909-7.93574,32.81649,1.64462,20.42224,14.49009,32.24255,33.02545,30.74187,5.88649-.47659,11.77298-1.8909,17.65947-3.93838,0,9.31081,32.89821,24.82884,40.96758,39.10542,8.06937,14.27658,15.24864,38.94131,16.13874,47.17479,1.24144,11.48334,7.75901,24.82884,15.82838,39.10542,8.06937,14.27658,26.07028,104.64331,20.79415,147.1627" fill="none" stroke="#c4836b" stroke-linecap="round" stroke-linejoin="round" stroke-width=".5"/>
        <path d="M2793.1307,832.50154c-.62072,18.62163,13.57827,46.63166,58.27017,35.45868" fill="none" stroke="#c4836b" stroke-linecap="round" stroke-linejoin="round" stroke-width=".5"/>
        <path d="M2764.96549,887.35775c9.31081,8.22455,34.8121,24.15639,37.08807-29.0187" fill="none" stroke="#c4836b" stroke-linecap="round" stroke-linejoin="round" stroke-width=".5"/>
        <path d="M2963.18237,833.30331c.53888,16.16648-8.27589,39.01213-40.34686,37.65707" fill="none" stroke="#c4836b" stroke-linecap="round" stroke-linejoin="round" stroke-width=".5"/>
        <path d="M2994.32187,889.99582c-5.89685,7.13829-23.56435,12.41082-23.97668,9.84692-1.78323-11.08836-12.95621-11.70908-15.23219-41.29678" fill="none" stroke="#c4836b" stroke-linecap="round" stroke-linejoin="round" stroke-width=".5"/>
        <path d="M3076.9812,844.8901c-1.24144-11.7937-5.41651-29.3302-28.96698-27.51863-16.13874,1.24144-19.86307,13.65586-27.93244,21.10451-19.73929,7.17792-33.51893,9.93153-44.69191,3.1036-11.17298-6.82793-12.20751-8.27628-12.20751-8.27628-19.03544,12.82823-33.93274,15.72493-52.14056-2.06907" fill="none" stroke="#c4836b" stroke-linecap="round" stroke-linejoin="round" stroke-width=".5"/>
        <path d="M2912.07635,808.06066s-13.86277-6.62102-20.8976-10.75916c-7.03484-4.13814-1.24144-4.96577-1.65526-8.69009-.41381-3.72433-4.13814-1.24144-10.34535-5.7934-6.20721,4.55195-9.93153,2.06907-10.34535,5.7934-.41381,3.72433,5.37958,4.55195-1.65526,8.69009-7.03484,4.13814-20.8976,10.75916-20.8976,10.75916" fill="none" stroke="#c4836b" stroke-linecap="round" stroke-linejoin="round" stroke-width=".5"/>
        <path d="M3009.06399,860.82194s9.77635-5.58649,11.0178-22.34595" fill="none" stroke="#c4836b" stroke-linecap="round" stroke-linejoin="round" stroke-width=".5"/>
        <path d="M2729.89476,833.19986c3.72433,13.03514,19.39753,27.62208,19.39753,27.62208" fill="none" stroke="#c4836b" stroke-linecap="round" stroke-linejoin="round" stroke-width=".5"/>
        <path d="M3028.77188,837.23454c0,6.20721,2.48288,11.25057,6.20721,13.11273" fill="none" stroke="#c4836b" stroke-linecap="round" stroke-linejoin="round" stroke-width=".5"/>
        <path d="M2725.86008,837.85526c0,4.96577,1.86216,6.82793-3.72433,13.03514" fill="none" stroke="#c4836b" stroke-linecap="round" stroke-linejoin="round" stroke-width=".5"/>
        <path d="M3008.90881,1077.45353c-65.79642,7.44865-72.62435,31.03605-89.38381,50.27839-8.72468,10.01723-25.03574,46.14025-37.45016,46.14025-12.41442,0-22.10446-36.12303-30.82914-46.14025-16.75946-19.24235-34.76037-42.00211-100.55679-49.45077" fill="none" stroke="#c4836b" stroke-linecap="round" stroke-linejoin="round" stroke-width=".5"/>
        <path d="M2895.31688,1351.86401c4.34505-19.24235,8.06937-198.68253,24.20812-224.13209" fill="none" stroke="#c4836b" stroke-linecap="round" stroke-linejoin="round" stroke-width=".5"/>
        <path d="M2912.69707,1347.20861c1.86216-8.69009,4.03469-177.11248,32.58785-248.49538" fill="none" stroke="#c4836b" stroke-linecap="round" stroke-linejoin="round" stroke-width=".5"/>
        <path d="M2921.61993,1281.10845c7.37106-64.37655,35.04487-182.29177,43.73496-193.46475" fill="none" stroke="#c4836b" stroke-linecap="round" stroke-linejoin="round" stroke-width=".5"/>
        <path d="M2863.0394,1351.86401c-4.34505-19.24235-8.69009-212.75221-24.82884-238.20176" fill="none" stroke="#c4836b" stroke-linecap="round" stroke-linejoin="round" stroke-width=".5"/>
        <path d="M2846.07302,1348.15793c-1.86216-8.69009-17.17328-235.53021-31.44986-251.66896" fill="none" stroke="#c4836b" stroke-linecap="round" stroke-linejoin="round" stroke-width=".5"/>
        <path d="M2830.24464,1240.80658c-5.58649-32.27749-24.93229-143.9038-39.20887-154.24914" fill="none" stroke="#c4836b" stroke-linecap="round" stroke-linejoin="round" stroke-width=".5"/>
        <path d="M2934.83024,1020.27738s-1.46188,16.17053-9.50219,30.03099c-9.73979,16.79013-28.50658,7.70025-41.66346,34.65115v-15.40051c13.15688-26.95089,31.92367-17.86101,41.66346-34.65115,8.04032-13.86046,9.50219-30.03099,9.50219-30.03099v15.40051Z" fill="#f7d5bf" stroke-width="0"/>
        <path d="M2883.66459,1072.63911c13.15688-26.95089,31.92367-17.86101,41.66346-34.65115,8.04032-13.86046,9.50219-30.03099,9.50219-30.03099" fill="none" stroke="#c4836b" stroke-linecap="round" stroke-linejoin="round" stroke-width=".25"/>
        <path d="M2883.66459,1075.71922c13.15688-26.95089,31.92367-17.86101,41.66346-34.65115,8.04032-13.86046,9.50219-30.03099,9.50219-30.03099" fill="none" stroke="#c4836b" stroke-linecap="round" stroke-linejoin="round" stroke-width=".25"/>
        <path d="M2883.66459,1078.79932c13.15688-26.95089,31.92367-17.86101,41.66346-34.65115,8.04032-13.86046,9.50219-30.03099,9.50219-30.03099" fill="none" stroke="#c4836b" stroke-linecap="round" stroke-linejoin="round" stroke-width=".25"/>
        <path d="M2883.66459,1081.87942c13.15688-26.95089,31.92367-17.86101,41.66346-34.65115,8.04032-13.86046,9.50219-30.03099,9.50219-30.03099" fill="none" stroke="#c4836b" stroke-linecap="round" stroke-linejoin="round" stroke-width=".25"/>
        <path d="M2883.66459,1069.55901c13.15688-26.95089,31.92367-17.86101,41.66346-34.65115,8.04032-13.86046,9.50219-30.03099,9.50219-30.03099" fill="none" stroke="#c4836b" stroke-linejoin="round" stroke-width=".25"/>
        <path d="M2934.83024,1020.27738s-1.46188,16.17053-9.50219,30.03099c-9.73979,16.79013-28.50658,7.70025-41.66346,34.65115" fill="none" stroke="#c4836b" stroke-linecap="round" stroke-linejoin="round" stroke-width=".25"/>
        <path d="M2830.12339,1019.73729s1.52975,16.34775,9.94337,30.36011c10.192,16.97414,30.44095,7.91123,43.59783,34.86212v-15.40051c-13.15688-26.95089-33.40584-18.05676-43.59783-35.0309-8.41362-14.01236-9.94337-30.36011-9.94337-30.36011v15.56929Z" fill="#f7d5bf" stroke-width="0"/>
        <path d="M2883.66459,1072.63911c-13.15688-26.95089-33.40584-18.023-43.59783-34.99714-8.41362-14.01236-9.94337-30.36011-9.94337-30.36011" fill="none" stroke="#c4836b" stroke-linecap="round" stroke-linejoin="round" stroke-width=".25"/>
        <path d="M2883.66459,1075.71922c-13.15688-26.95089-33.40584-17.98924-43.59783-34.96339-8.41362-14.01236-9.94337-30.36011-9.94337-30.36011" fill="none" stroke="#c4836b" stroke-linecap="round" stroke-linejoin="round" stroke-width=".25"/>
        <path d="M2883.66459,1078.79932c-13.15688-26.95089-33.40584-17.95549-43.59783-34.92963-8.41362-14.01236-9.94337-30.36011-9.94337-30.36011" fill="none" stroke="#c4836b" stroke-linecap="round" stroke-linejoin="round" stroke-width=".25"/>
        <path d="M2883.66459,1081.87942c-13.15688-26.95089-33.40584-17.92173-43.59783-34.89587-8.41362-14.01236-9.94337-30.36011-9.94337-30.36011" fill="none" stroke="#c4836b" stroke-linecap="round" stroke-linejoin="round" stroke-width=".25"/>
        <path d="M2883.66459,1069.55901c-13.15688-26.95089-33.40584-18.05676-43.59783-35.0309-8.41362-14.01236-9.94337-30.36011-9.94337-30.36011" fill="none" stroke="#c4836b" stroke-linejoin="round" stroke-width=".25"/>
        <path d="M2830.12339,1019.73729s1.52975,16.34775,9.94337,30.36011c10.192,16.97414,30.44095,7.91123,43.59783,34.86212" fill="none" stroke="#c4836b" stroke-linecap="round" stroke-linejoin="round" stroke-width=".25"/>
        <path d="M3022.20978,1059.59633c-14.31197,7.71425-31.16421,10.93694-42.69043,13.10796-28.54094,5.37583-45.50468,3.31007-63.06959,5.30932-17.5649,1.99926-25.1079,10.37157-32.77146,17.99728v-20.22273c7.66356-7.62571,10.23372-15.42185,27.79862-17.42111,17.5649-1.99926,37.80375,7.91081,66.34469,2.53498,3.84208-.72367,11.8404-4.03335,25.5078-10.63219l18.88037,9.32649Z" fill="#f7d5bf" stroke-width="0"/>
        <path d="M2883.6783,1079.15862c7.66356-7.62571,11.06252-15.51788,28.62743-17.51714s37.2579,6.60342,65.79884,1.2276c5.12277-.9649,14.59674-4.26008,28.37157-11.04482" fill="none" stroke="#c4836b" stroke-linecap="round" stroke-linejoin="round" stroke-width=".25"/>
        <path d="M2883.6783,1082.52907c7.66356-7.62571,11.89133-15.61391,29.45624-17.61316s36.71205,5.29604,65.25299-.07979c6.40346-1.20612,17.35308-4.4868,31.23534-11.45745" fill="none" stroke="#c4836b" stroke-linecap="round" stroke-linejoin="round" stroke-width=".25"/>
        <path d="M2883.6783,1085.89953c7.66356-7.62571,12.72014-15.70994,30.28504-17.70919,17.5649-1.99926,36.1662,3.98866,64.70714-1.38717,7.68415-1.44735,20.10943-4.71353,34.09911-11.87008" fill="none" stroke="#c4836b" stroke-linecap="round" stroke-linejoin="round" stroke-width=".25"/>
        <path d="M2883.6783,1089.26998c7.66356-7.62571,13.54894-15.80596,31.11385-17.80522,17.5649-1.99926,35.62035,2.68127,64.16129-2.69455,8.96484-1.68857,22.86577-4.94026,36.96289-12.28271" fill="none" stroke="#c4836b" stroke-linecap="round" stroke-linejoin="round" stroke-width=".25"/>
        <path d="M2883.6783,1092.64044c7.66356-7.62571,14.37775-15.90199,31.94265-17.90125,17.5649-1.99926,35.0745,1.37389,63.61544-4.00194,10.24553-1.9298,25.62212-5.16698,39.82666-12.69534" fill="none" stroke="#c4836b" stroke-linecap="round" stroke-linejoin="round" stroke-width=".25"/>
        <path d="M2883.6783,1075.78816c7.66356-7.62571,10.23372-15.42185,27.79862-17.42111,17.5649-1.99926,37.80375,7.91081,66.34469,2.53498,3.84208-.72367,11.8404-4.03335,25.5078-10.63219" fill="none" stroke="#c4836b" stroke-linecap="round" stroke-linejoin="round" stroke-width=".25"/>
        <path d="M3022.20978,1059.59633c-14.31197,7.71425-31.16421,10.93694-42.69043,13.10796-28.54094,5.37583-45.50468,3.31007-63.06959,5.30932-17.5649,1.99926-25.1079,10.37157-32.77146,17.99728" fill="none" stroke="#c4836b" stroke-linecap="round" stroke-linejoin="round" stroke-width=".25"/>
        <path d="M2745.14682,1059.59633c14.31197,7.71425,31.16421,10.93694,42.69043,13.10796,28.54094,5.37583,45.50468,3.31007,63.06959,5.30932,17.5649,1.99926,25.1079,10.37157,32.77146,17.99728v-20.22273c-7.66356-7.62571-10.23372-15.42185-27.79862-17.42111-17.5649-1.99926-37.80375,7.91081-66.34469,2.53498-3.84208-.72367-11.8404-4.03335-25.5078-10.63219l-18.88037,9.32649Z" fill="#f7d5bf" stroke-width="0"/>
        <path d="M2883.6783,1079.15862c-7.66356-7.62571-11.06252-15.51788-28.62743-17.51714-17.5649-1.99926-37.2579,6.60342-65.79884,1.2276-5.12277-.9649-14.59674-4.26008-28.37157-11.04482" fill="none" stroke="#c4836b" stroke-linecap="round" stroke-linejoin="round" stroke-width=".25"/>
        <path d="M2883.6783,1082.52907c-7.66356-7.62571-11.89133-15.61391-29.45624-17.61316-17.5649-1.99926-36.71205,5.29604-65.25299-.07979-6.40346-1.20612-17.35308-4.4868-31.23534-11.45745" fill="none" stroke="#c4836b" stroke-linecap="round" stroke-linejoin="round" stroke-width=".25"/>
        <path d="M2883.6783,1085.89953c-7.66356-7.62571-12.72014-15.70994-30.28504-17.70919-17.5649-1.99926-36.1662,3.98866-64.70714-1.38717-7.68415-1.44735-20.10943-4.71353-34.09911-11.87008" fill="none" stroke="#c4836b" stroke-linecap="round" stroke-linejoin="round" stroke-width=".25"/>
        <path d="M2883.6783,1089.26998c-7.66356-7.62571-13.54894-15.80596-31.11385-17.80522-17.5649-1.99926-35.62035,2.68127-64.16129-2.69455-8.96484-1.68857-22.86577-4.94026-36.96289-12.28271" fill="none" stroke="#c4836b" stroke-linecap="round" stroke-linejoin="round" stroke-width=".25"/>
        <path d="M2883.6783,1092.64044c-7.66356-7.62571-14.37775-15.90199-31.94265-17.90125-17.5649-1.99926-35.0745,1.37389-63.61544-4.00194-10.24553-1.9298-25.62212-5.16698-39.82666-12.69534" fill="none" stroke="#c4836b" stroke-linecap="round" stroke-linejoin="round" stroke-width=".25"/>
        <path d="M2883.6783,1075.78816c-7.66356-7.62571-10.23372-15.42185-27.79862-17.42111-17.5649-1.99926-37.80375,7.91081-66.34469,2.53498-3.84208-.72367-11.8404-4.03335-25.5078-10.63219" fill="none" stroke="#c4836b" stroke-linecap="round" stroke-linejoin="round" stroke-width=".25"/>
        <path d="M2745.14682,1059.59633c14.31197,7.71425,31.16421,10.93694,42.69043,13.10796,28.54094,5.37583,45.50468,3.31007,63.06959,5.30932,17.5649,1.99926,25.1079,10.37157,32.77146,17.99728" fill="none" stroke="#c4836b" stroke-linecap="round" stroke-linejoin="round" stroke-width=".25"/>
        <path d="M2879.17814,1355.19848s3.31632-115.6466,3.31051-172.63621c-.00158-15.53132.36761-31.31714,0-45.00227-.45609-16.97898,1.65768-31.52722,1.18966-47.14891-.18274-6.09954.12528-14.82257.00005-19.96806-.41657-17.1167.62801-36.548.07761-42.33681-11.0954-116.69553-4.57783-245.28822-4.57783-245.28822" fill="none" stroke="#c4836b" stroke-linecap="round" stroke-miterlimit="10" stroke-width=".5"/>
        <path d="M2887.67264,793.71538c-.05658-1.58009,2.10948-2.77627,1.85085-5.10398" fill="none" stroke="#c4836b" stroke-linecap="round" stroke-linejoin="round" stroke-width=".5"/>
        <path d="M2912.07635,808.06066s-13.86277-6.62102-20.8976-10.75916" fill="none" stroke="#c4836b" stroke-linecap="round" stroke-linejoin="round" stroke-width=".5"/>
        <path d="M2846.27993,808.06066s13.86277-6.62102,20.8976-10.75916" fill="none" stroke="#c4836b" stroke-linecap="round" stroke-linejoin="round" stroke-width=".5"/>
        <path d="M2869.49069,795.68339c-.03845.03441-.07815.06904-.11883.10402.04067-.03492.08038-.06961.11883-.10402Z" fill="#fadfcd" stroke="#c4836b" stroke-linecap="round" stroke-linejoin="round" stroke-width=".5"/>
        <path d="M2868.83629,796.21771c-.00211.00159-.00427.00308-.00638.00467.00211-.00154.00427-.00313.00638-.00467Z" fill="#fadfcd" stroke="#c4836b" stroke-linecap="round" stroke-linejoin="round" stroke-width=".5"/>
        <path d="M2870.28204,794.81195c-.02062.03025-.04221.06072-.0646.09137.02244-.03065.04403-.06112.0646-.09137Z" fill="#fadfcd" stroke="#c4836b" stroke-linecap="round" stroke-linejoin="round" stroke-width=".5"/>
        <path d="M2870.63743,794.03633c-.00615.02723-.01316.05469-.02079.0822.00763-.02746.01458-.05497.02079-.0822Z" fill="#fadfcd" stroke="#c4836b" stroke-linecap="round" stroke-linejoin="round" stroke-width=".5"/>
        <path d="M2868.16872,796.68203c-.05964.03953-.12071.07946-.18291.11962.06215-.04022.12327-.08015.18291-.11962Z" fill="#fadfcd" stroke="#c4836b" stroke-linecap="round" stroke-linejoin="round" stroke-width=".5"/>
        <path d="M2773.8625,818.81987c6.36021-3.01562,15.52186-11.45878,19.30445-14.0936,5.02623-3.50101,11.4127-4.408,17.19216-2.37876,14.04051,4.92973,20.15914,10.71079,35.92082,5.71316,0,0,13.86278-6.62099,20.89762-10.75915.29393-.17294.55768-.33808.80826-.49986.0622-.04016.12327-.08009.18291-.11962.23777-.15762.46255-.31182.66118-.45964.00211-.00159.00427-.00308.00638-.00467.19926-.14851.37311-.2908.53558-.43031.04067-.03498.08038-.06961.11883-.10402.15358-.13728.29627-.27189.41646-.40131.12099-.13028.22034-.25554.31028-.37875.02239-.03065.04398-.06112.0646-.09137.08214-.12082.1554-.23959.21043-.35449.05548-.11586.09354-.22808.12418-.33894.00763-.02751.01464-.05497.02079-.0822.02467-.10869.04244-.21606.0462-.32094l-.00006.00097c.05748-1.58058-2.10944-2.77677-1.85076-5.10495.41379-3.72431,4.13816-1.24142,10.34536-5.79336,6.20721,4.55194,9.93152,2.06905,10.34536,5.79336.41379,3.72437-5.37963,4.552,1.65521,8.6901,7.03484,4.13816,20.89762,10.75915,20.89762,10.75915,19.08719,6.05204,29.94978,4.03471,49.45076-4.1381,0,0,8.12627,7.86087,22.96667,14.89731,12.00063,5.68992,25.51502,2.50386,38.27782-2.06911,21.27125-7.62151,27.82895-27.10477,50.0715-26.07024l-22.57276-44.56666c-1.0515-2.07611-3.2273-3.39198-5.54887-3.23038-10.90897.75922-21.924,7.35042-27.74328,6.51908-6.51755-.93108-7.4186-17.20299-23.89775-27.00138-26.79443-15.93183-64.55496-21.41485-79.45226-13.03515-14.89731,8.37976-22.34593,22.34599-34.45,21.41491-12.10407.93108-19.5527-13.03515-34.45-21.41491-14.89731-8.3797-45.82989-1.03452-72.62438,14.89731-16.47914,9.79845-24.20809,24.20814-30.72569,25.13922-6.51755.93108-19.5527-7.44868-31.65677-6.5176l-16.32004,48.35562c16.28797,3.24114,23.65685,18.87209,42.18345,25.51017,12.76275,4.57296,26.27719,7.75902,38.27776,2.06911Z" fill="url(#radial-gradient-35)" stroke-width="0"/>
        <path d="M2870.21744,794.90332c-.08995.12321-.18929.24848-.31028.37875.12099-.13022.22028-.25554.31028-.37875Z" fill="#f5d0b9" stroke="#c4836b" stroke-linejoin="round" stroke-width=".5"/>
        <path d="M2870.49246,794.45746c-.05503.1149-.12828.23367-.21043.35449.08214-.12076.15546-.23959.21043-.35449Z" fill="#f5d0b9" stroke="#c4836b" stroke-linejoin="round" stroke-width=".5"/>
        <path d="M2870.61664,794.11853c-.03065.11085-.0687.22307-.12418.33894.05548-.11592.09354-.22808.12418-.33894Z" fill="#f5d0b9" stroke="#c4836b" stroke-linejoin="round" stroke-width=".5"/>
        <path d="M2868.82991,796.22238c-.19863.14782-.42341.30202-.66118.45964.23771-.15751.46261-.31188.66118-.45964Z" fill="#f5d0b9" stroke="#c4836b" stroke-linejoin="round" stroke-width=".5"/>
        <path d="M2870.63743,794.03633c.02461-.10835.04232-.21544.04614-.31997l.00006-.00097c-.00376.10487-.02153.21225-.0462.32094Z" fill="#f5d0b9" stroke="#c4836b" stroke-linejoin="round" stroke-width=".5"/>
        <path d="M2867.98581,796.80165c-.25059.16178-.51433.32692-.80826.49986.29399-.17294.55768-.33802.80826-.49986Z" fill="#f5d0b9" stroke="#c4836b" stroke-linejoin="round" stroke-width=".5"/>
        <path d="M2869.37186,795.7874c-.16246.13951-.33632.2818-.53558.43031.19932-.14851.37306-.2908.53558-.43031Z" fill="#f5d0b9" stroke="#c4836b" stroke-linejoin="round" stroke-width=".5"/>
        <path d="M2869.90715,795.28208c-.12019.12942-.26289.26403-.41646.40131.15352-.13723.29627-.27189.41646-.40131Z" fill="#f5d0b9" stroke="#c4836b" stroke-linejoin="round" stroke-width=".5"/>
        <path d="M2961.52711,803.92252c3.46569,7.5521,5.7934,22.34595,1.65526,29.38079" fill="none" stroke="#c4836b" stroke-linecap="round" stroke-linejoin="round" stroke-width=".5"/>
        <path d="M3062.2102,1005.4191c-7.88537-12.74572-28.65829-21.64356-40.26627-20.45301-5.55531.56975-10.54314.96463-15.02502,1.11405-15.04883.5018-24.32783-1.79551-29.6669-9.80415-.80616-1.20918-1.73308-2.5733-2.72778-4.0796-3.60081-5.45283-8.14421-12.88408-11.54879-22.61138-4.34505-12.41441-35.38114-58.96849-47.79555-68.27933-12.41441-9.31078-14.27657-9.31078-8.6901-13.03515,12.75591-8.50388,12.62136-26.48409,4.552-37.03634,3.10357-2.48289,5.37958-13.24204,1.03452-23.17356,0,0-13.86278-6.62105-20.89762-10.75915-2.63806-1.55182-3.47213-2.63806-3.50608-3.58612,0,0,3.29919,75.79665,2.67845,83.24528-.93108,11.17299,18.92222,23.65069,31.03603,54.3131,9.61702,24.34241,27.07116,46.54832,29.79461,51.8302,4.80674,9.32217,9.38062,17.34756,13.60206,24.57556,4.56579,7.8177,8.7118,14.69839,12.29963,21.27808.6961,1.27657,1.3783,2.54573,2.03077,3.80401,8.6901,16.75946,26.59625,27.46119,40.34693,32.27751,6.13122,2.14749,11.77288,3.46176,17.65938,3.93838,1.22832.09946,2.42975.13637,3.60651.12019,16.58031-.22797,27.8833-11.79322,29.41894-30.86212.9243-11.47735-2.10773-22.88572-7.93572-32.81644Z" fill="#f5d0b9" stroke="#c4836b" stroke-linecap="round" stroke-linejoin="round" stroke-width=".5"/>
        <path d="M2870.68364,793.71535c-.03395.94805-.86802,2.0343-3.50608,3.58612-7.03484,4.1381-20.89762,10.75915-20.89762,10.75915-.62074,9.10394.93108,17.06986,4.03465,19.55275-8.06936,10.55226-11.20404,32.15327,1.55187,40.65715,5.58647,3.72437,3.72431,3.72437-8.6901,13.03515-12.41441,9.31084-43.4505,55.86491-47.79555,68.27933-3.40457,9.7273-7.94797,17.15855-11.54879,22.61138-.99471,1.5063-1.92163,2.87042-2.72778,4.0796-5.33907,8.00864-14.61807,10.30594-29.6669,9.80415-4.48188-.14942-9.46971-.54429-15.02502-1.11405-11.60797-1.19055-32.3809,7.7073-40.26627,20.45301-5.828,9.93072-8.86002,21.33909-7.93572,32.81644,1.53564,19.0689,12.83862,30.63415,29.41894,30.86212,1.17676.01618,2.37819-.02073,3.60651-.12019,5.8865-.47662,11.52817-1.79089,17.65938-3.93838,13.75068-4.81631,31.65683-15.51804,40.34693-32.27751.65247-1.25828,1.33467-2.52744,2.03077-3.80401,3.58783-6.57969,7.73384-13.46039,12.29963-21.27808,4.22144-7.228,10.1698-13.43128,16.08489-22.09267,4.34505-6.36238,22.03975-23.76348,31.65677-48.10589,12.11381-30.6624,27.62212-49.34731,26.69104-60.5203-.62074-7.44862,2.67845-83.24528,2.67845-83.24528Z" fill="url(#radial-gradient-36)" stroke="#c4836b" stroke-linecap="round" stroke-linejoin="round" stroke-width=".5"/>
        <path d="M2741.3781,749.40257c3.1036,5.89681,5.58648,12.10402,10.55225,18.93195" fill="none" stroke="#c4836b" stroke-linecap="round" stroke-linejoin="round" stroke-width=".5"/>
        <path d="M3016.97818,749.40253c-1.86216,6.20721-17.38019,18.93199-25.44956,20.17343" fill="none" stroke="#c4836b" stroke-linecap="round" stroke-linejoin="round" stroke-width=".5"/>
        <path d="M2883.75597,1028.10622c.09135,10.59859-26.95336,21.92813-41.93758,2.92375" fill="none" stroke="#c4836b" stroke-linejoin="round" stroke-width=".25"/>
        <path d="M2883.75597,1028.10622c-.09135,10.59859,26.95336,21.92813,41.93758,2.92375" fill="none" stroke="#c4836b" stroke-linejoin="round" stroke-width=".25"/>
        <path d="M2687.89994,1037.30453c1.64462,20.42224,14.80045,33.17363,33.33581,31.67296" fill="none" stroke="#c4836b" stroke-linejoin="round" stroke-width=".5"/>
        <path d="M2664.12561,1059.54971c13.65896,2.00326,18.29521,2.04495,25.97682,2.1153.96531.0086,6.46548.01811,8.50126.03201-5.06451-4.66975-8.58198-11.37077-10.07211-19.58511-6.0403-.06699-9.99595-.23515-21.03388-1.85298" fill="#f5d0b9" stroke="#c4836b" stroke-linejoin="round" stroke-width=".5"/>
        <path d="M2935.81892,959.82692c-1.2773,11.5206-3.31694,23.99654-2.94842,31.36694,2.55828,14.43602,4.8095,27.54905-3.65469,50.43471-16.96058,45.85842-46.53098,124.55508-46.71383,138.63455-.18285-14.07947-29.75325-92.77613-46.71383-138.63455-8.46418-22.88566-6.21297-35.99869-3.65469-50.43471.37676-7.53526-1.77111-19.14878-3.04015-30.93658" fill="none" stroke="#c4836b" stroke-linecap="round" stroke-linejoin="round" stroke-width=".5"/>
        <path d="M3011.80551,985.79374s-28.34625-10.13844-33.93274-38.07088c-1.99341-9.96704-6.16784-33.97699-7.52758-47.88013-.18019-1.84246-6.43864-15.74377-14.50801-20.70953-13.4042-8.24874-34.12006-9.81952-52.45092-7.13829" fill="none" stroke="#c4836b" stroke-linecap="round" stroke-linejoin="round" stroke-width=".5"/>
        <path d="M2693.40129,791.24059c16.28797,3.24114,23.65685,18.87209,42.18345,25.51017,12.76275,4.57296,26.27719,7.75902,38.27776,2.06911,6.36021-3.01562,15.52186-11.45878,19.30445-14.0936,5.02623-3.50101,11.4127-4.408,17.19216-2.37876,14.04051,4.92973,20.15914,10.71079,35.92082,5.71316,0,0,13.86278-6.62099,20.89762-10.75915.29393-.17294.55768-.33808.80826-.49986.0622-.04016.12327-.08009.18291-.11962.23777-.15762.46255-.31182.66118-.45964.00211-.00159.00427-.00308.00638-.00467.19926-.14851.37311-.2908.53558-.43031.04067-.03498.08038-.06961.11883-.10402.15358-.13728.29627-.27189.41646-.40131.12099-.13028.22034-.25554.31028-.37875.02239-.03065.04398-.06112.0646-.09137.08214-.12082.1554-.23959.21043-.35449.05548-.11586.09354-.22808.12418-.33894.00763-.02751.01464-.05497.02079-.0822.02467-.10869.04244-.21606.0462-.32094l-.00006.00097c.05748-1.58058-2.10944-2.77677-1.85076-5.10495.41379-3.72431,4.13816-1.24142,10.34536-5.79336,6.20721,4.55194,9.93152,2.06905,10.34536,5.79336.41379,3.72437-5.37963,4.552,1.65521,8.6901,7.03484,4.13816,20.89762,10.75915,20.89762,10.75915,19.08719,6.05204,29.94978,4.03471,49.45076-4.1381,0,0,8.12627,7.86087,22.96667,14.89731,12.00063,5.68992,25.51502,2.50386,38.27782-2.06911,21.27125-7.62151,27.82895-27.10477,50.0715-26.07024" fill="none" stroke="#c4836b" stroke-linecap="round" stroke-linejoin="round" stroke-width=".5"/>
        <path d="M2681.37508,844.8901c1.24144-11.7937,5.41651-29.3302,28.96698-27.51863,16.13874,1.24144,13.03514,16.13874,27.93244,21.10451,19.73929,7.17792,33.51893,9.93153,44.69191,3.1036,11.17298-6.82793,15.51802-19.86307,24.20812-19.86307s34.45001,8.37973,43.1401,5.89685" fill="none" stroke="#c4836b" stroke-linecap="round" stroke-linejoin="round" stroke-width=".5"/>
    </g>
    <g>
        <title>.id(geniculate_ganglion_of_facial_nerve)</title>
        <path d="M3105.11552,1032.70903c.24192-4.16931.1366-7.09193-.09092-9.11828-.2446-2.1785-2.5025-3.50917-4.52444-2.66216-1.6315.68345-3.30382,1.49898-4.31388,1.99173-8.6394,4.2117-17.45562,7.8811-26.20622,10.90794l-2.10277-15.75703c8.18551-2.83089,13.6642-4.62427,21.76404-8.57347,6.43649-3.13713,15.25088-7.4345,22.78837-2.41528,7.79087,5.18875,8.15088,16.88325,7.59309,26.49058" fill="#f5d0b9" stroke="#c4836b" stroke-linejoin="round" stroke-width=".5"/>
        <path d="M2667.63071,1036.47472c9.43884,1.51149,15.20127,1.56196,20.52057,1.61476-.04762-.44455-.09655-.88824-.13295-1.34037-.36531-4.53588.07815-9.10309,1.09639-13.58326-.20199-.00199-.41117-.00433-.60627-.00615-5.00008-.05013-10.05456-.07565-18.51715-1.43003" fill="#f5d0b9" stroke="#c4836b" stroke-linejoin="round" stroke-width=".5"/>
    </g>
    <g>
        <title>.id(lateral_geniculate_body)</title>
        <ellipse cx="2705.79248" cy="835.86684" rx="17.38019" ry="11.17298" fill="#929497" stroke="#808184" stroke-miterlimit="10" stroke-width=".5"/>
    </g>
    <g>
        <title>.id(superior_culliculus)</title>
        <path d="M2846.27991,808.06066s.00629.35931-.09696,1.5324c-.07794.88553-.0194,2.3471-.0194,4.15107,0,1.10465.06433,2.42078.27153,3.93769.54317,3.9765,1.4936,6.80853,2.23071,7.81721,9.15572.46554,15.03322-19.53333,14.72288-26.05089l-17.10877,8.61252Z" fill="#929497" stroke="#808184" stroke-miterlimit="10" stroke-width=".5"/>
        <path d="M2773.86236,818.81988c6.36021-3.01562,15.52186-11.45878,19.30445-14.0936,5.02623-3.50101,11.4127-4.408,17.19222-2.37876,14.04051,4.92973,20.3253,10.7177,35.92076,5.71316,0,0,.51701-.24694,1.39608-.67235.04386-.12965-.05993.03993,0,0l15.71269-7.94017c0-2.09491-5.85801-2.71567-13.4618-2.71567-4.98299,0-9.85388-.15517-24.75113-2.01733-5.27951-.65992-10.42855-1.27705-14.93567-1.03675-3.44344.1836-6.77555,1.2439-9.75141,2.98608-1.96949,1.15301-4.48691,2.8155-6.96998,4.98208-2.12257,1.85203-14.78401,12.34606-22.96678,15.41454-7.48215,2.80581-11.93705,3.21076-22.48736,3.41675-.00064.00337.00036-.00188-.00028.00149,8.82457,1.96999,17.65953,2.19939,25.79822-1.65948Z" fill="#929497" stroke="#808184" stroke-miterlimit="10" stroke-width=".5"/>
        <path d="M2846.42189,807.99196s.06608-.03201,0,0c.0401-.01942-.05195.02506,0,0-20.26737,9.17623-34.22198-14.94419-52.99438-3.39369-12.775,10.92549-25.79676,21.36609-45.1028,15.75331-16.42799-.06465-22.4892,5.45203-38.83857,4.60082,7.1556.99647,12.6597,4.82315,13.54834,9.56746,3.31668-6.34295,9.6087-6.74848,17.36311-7.13623,8.2762-.41379,25.30983-1.63367,31.03609-3.1553,22.1907-5.89687,28.55314-20.8459,36.82934-20.01826,7.5523.62074,9.80147,13.54412,24.69963,18.85437,7.83666,2.79323,9.72876,3.05529,15.70315,2.43461-1.93974-2.56048-2.88236-15.62168-2.2439-17.50708ZM2846.27993,808.06066c-.20644.09992-.12555.06072,0,0h0Z" fill="#929497" stroke="#808184" stroke-miterlimit="10" stroke-width=".5"/>
    </g>
    <g>
        <title>.id(posterior_cochlear_nuclei)</title>
        <path d="M2764.88273,1047.84514c2.95823,3.09501,4.55195,7.84921,4.55195,13.88346,0,9.5531-4.89115,17.29742-10.92469,17.29742s-10.92469-7.74432-10.92469-17.29742c5.91754-2.27598,15.57406-10.34507,17.29742-13.88346Z" fill="#929497" stroke="#808184" stroke-linejoin="round" stroke-width=".5"/>
    </g>
    <g>
        <title>.id(facial_nerve_afferent_cn_vii)</title>
        <path d="M2687.84092,1035.01174l.52073-7.5352c13.73427-.43019,31.99741-5.36647,49.82672-10.14234,20.16711-5.40202,41.02691-10.98906,56.80642-10.65092l-.15859,7.46457c-14.72681-.30715-35.05434,5.13315-54.71561,10.39845-18.23945,4.88524-37.68137,10.0079-52.27967,10.46543Z" fill="#929497" stroke="#808184" stroke-linejoin="round" stroke-width=".5"/>
        <path d="M2669.34385,1025.97178c8.73784,1.39813,11.50401,1.42547,16.52597,1.4756.77107.0082,1.59226.01641,2.49184.02917l-.52073,7.5352c-.88591-.01367-1.28571-.09068-2.04584-.09797-5.20333-.05195-8.3441-.08294-17.63061-1.56947" fill="#929497" stroke="#808184" stroke-linejoin="round" stroke-width=".5"/>
        <path d="M2851.20426,1093.28875c-1.15204-24.75158-2.14641-46.12816-2.61853-49.64352-2.44535-18.20481-10.83867-30.04696-24.94572-35.19743-1.83516-.66984-3.6792-1.18554-5.50182-1.58252,6.54176-4.99165,11.73736-14.04448,12.62577-15.45918l-3.16174-1.98508c-3.93622,6.26463-10.72043,15.54104-15.5364,16.52526-5.2473-.47582-9.96758-.13854-13.27514.22324l-6.65956,8.47523c1.62724-.28915,3.22838-.53541,4.80139-.73205l.35454-.04375c9.67022-1.21949,39.1038-4.91896,43.8979,30.77064.42928,3.19272,1.51297,26.47782,2.56111,48.99641,1.17392,25.24011,2.38885,54.85753,3.0077,60.31059l7.419-.84216c-.59152-5.20697-1.85475-35.86707-2.96851-59.81568Z" fill="#929497" stroke="#808184" stroke-miterlimit="10" stroke-width=".5"/>
    </g>
    <g>
        <title>.id(vestibular_nuclei)</title>
        <path d="M2832.41722,1066.96755c-3.16914-17.08735-23.38057-44.39964-26.27731-50.64689-2.28654-4.93144-.83908-13.14851-.53296-21.86157.08157-2.3247.08659-4.62435-.08772-6.80322-.82757-10.34536-6.41416-7.24173-9.10389-2.06911-1.90909,3.67145-9.51767,24.82888-11.58684,29.79461-2.06905,4.96579-10.34536,11.58678-21.5183,17.79404-.59482,1.2932-.6724,6.7245-1.03447,10.34531,1.70072,0,3.35997.11205,4.97912.308,13.35102,1.61601,23.78684,11.64568,28.9536,16.22229,24.40125,21.61406,25.65651,37.03697,27.51856,42.16858.6867,1.89223,1.82348,4.87653,2.98503,7.89021,1.23754,3.21078,5.59792,2.62177,6.07437-.81709,1.42496-10.28447,2.60212-26.30482-.36918-42.32518Z" fill="#929497" stroke="#808184" stroke-linejoin="round" stroke-width=".5"/>
    </g>
    <g>
        <title>.id(vestibulocochlear_nerve_cn_viii)</title>
        <path d="M2691.02212,1050.68494l-1.43095-5.56594c16.98052-.26699,62.2616-6.61571,73.71906-11.94355l-1.03447,10.34531c-11.19889-.90519-34.7087,5.06925-58.42078,6.16175-5.29532.24397-8.72506.58956-12.83286,1.00243Z" fill="#929497" stroke="#808184" stroke-linejoin="round" stroke-width=".5"/>
        <path d="M2666.96918,1043.31388c6.01632,1.1803,14.20133,1.84613,22.62199,1.80512l1.43095,5.56594c-.15677.00091-.31444.00091-.47121.00091-8.78158,0-18.34701-1.34513-24.50915-2.5555" fill="#929497" stroke="#808184" stroke-linejoin="round" stroke-width=".5"/>
        <path d="M2665.58331,1051.41786c11.34634,1.96048,19.8979,2.91298,26.99061,2.37068l3.25878,5.35372c-1.65333.12669-5.45407.18768-7.32249.18768-6.6607,0-14.66301-.80114-23.88026-2.39431" fill="#929497" stroke="#808184" stroke-linejoin="round" stroke-width=".5"/>
        <path d="M2692.57392,1053.78855l3.25878,5.35372c.782.0638,1.72575.12085,2.91922.0862,13.6592-.39656,10.5556,1.05179,46.31226-5.14557-.55278-1.64655-.9333-3.45459-1.12561-5.36357-27.59622,5.97444-38.76864,5.32784-51.36465,5.06922Z" fill="#929497" stroke="#808184" stroke-linejoin="round" stroke-width=".5"/>
    </g>
    <g>
        <title>.id(anterior_cochlear_nuclei)</title>
        <ellipse cx="2754.71361" cy="1045.95318" rx="10.92469" ry="17.29742" fill="#929497" stroke="#808184" stroke-linejoin="round" stroke-width=".5"/>
    </g>
    <g>
        <title>.id(glossopharyngeal_afferent_nerve_cn_ix)</title>
        <path d="M2844.07232,1109.40275c-4.38031-9.01764-8.51636-10.28361-10.28361-10.82409-.18411-.05651-.34999-.10846-.49764-.15768-7.75167-2.58298-18.71157-3.16812-32.57435-1.74173-2.03111.33119-4.46644.61624-7.19422.85714,8.02066,4.18105,13.73006,10.22938,14.08642,10.61224l-2.72972,2.54561c-.10595-.11222-9.2062-9.72895-20.03199-12.58325-3.01503.14498-6.20475.25069-9.48411.31749l-5.58509-5.49912c11.95163-.08573,23.34401-.676,30.11479-1.78884.05469-.00911.11028-.01641.16588-.02279,14.69856-1.52026,26.476-.85218,35.0033,1.99146.10846.03555.23059.07291.36639.11484,1.66135.50811,4.82534,1.47679,8.37907,5.48868l.26489,10.69004Z" fill="#929497" stroke="#808184" stroke-linejoin="round" stroke-width=".5"/>
        <path d="M2650.75988,1166.00543c0-.10846.02825-10.96851,2.06711-41.18864,2.24666-33.29711,12.22222-36.26289,23.12833-36.4953,9.15618-.18867,22.73551,2.38885,37.10231,5.12403,5.1532.98161,10.4823,1.99602,15.7385,2.90562,9.90847,1.71556,29.45762,2.42588,46.56696,2.07734l-5.58509-5.49912c-15.2408.10933-31.39103-.6018-40.0267-2.09599-5.20971-.9014-10.51603-1.91217-15.64644-2.88831-14.66392-2.79261-28.5504-5.44303-38.26802-5.22156-15.49788.32994-26.29098,7.55025-28.59689,41.71594-2.05618,30.46987-2.07987,41.11846-2.07987,41.56597" fill="#929497" stroke="#808184" stroke-linejoin="round" stroke-width=".5"/>
    </g>
    <g>
        <title>.id(glossopharyngeal_efferent_nerve_cn_ix)</title>
        <path d="M3117.28578,1169.58049l-.06471-1.74807c-2.58389-75.168-11.22147-76.07669-20.36489-77.03915-8.56011-.90322-17.66343.72549-30.26753,2.97854-9.71488,1.73535-21.80494,3.89543-37.01208,5.40202-8.07193.7996-29.41362,1.60322-47.90364.57978l3.02641-3.57087c17.51853.78777,36.93173.02729,44.50902-.72388,15.06222-1.492,27.07298-3.63841,36.72407-5.36192,12.90761-2.30682,22.23696-3.97199,31.31385-3.01682,13.07258,1.37625,21.19155,7.48918,23.70618,80.6247l.0638,1.87567" fill="#bfbac1" stroke="#a6a8ab" stroke-miterlimit="10" stroke-width=".5"/>
        <path d="M2961.55959,1093.64479c-.02077-.00609-.04511-.01262-.0666-.01871-5.21255-1.21631-12.59921-14.39914-16.15325-20.74324l-1.87405-3.32489-3.2497,1.83744,1.86618,3.31209c3.6321,6.48212,7.40671,12.90185,11.22858,17.26116-2.09104-.37426-4.38974-.77331-6.73929-1.18086-3.59486-.62346-7.31146-1.26868-10.25109-1.82375l-1.4136-.268c-9.19196-1.7499-17.12931-3.26017-18.43405,1.96052-.63018,2.52007.17473,4.17061.96102,5.11122,1.64562,1.96867,4.84089,2.91662,9.94316,2.91563,1.06414,0,2.21206-.041,3.44376-.1221,1.02905-.06839,1.80746-.95788,1.74014-1.98595-.06875-1.02905-.94956-1.81193-1.98577-1.73996-7.47116.49671-9.64311-.70358-10.27687-1.46104-.13821-.16587-.50557-.6061-.20409-1.81184.45043-1.80101,9.67963-.04377,14.11449.80115l1.41933.26881c2.96684.56053,6.69776,1.20763,10.30551,1.83288,6.27526,1.0892,12.76463,2.21474,14.64656,2.78074.01003.00304.02005,0,.03008.00286.03294.00788.0666.02345.09954.03088,5.61142,1.25802,13.02472,2.03428,20.96349,2.47371l3.02627-3.57087c-8.75872-.39386-17.0471-1.17504-23.13975-2.53789Z" fill="#bfbac1" stroke="#a6a8ab" stroke-linecap="round" stroke-miterlimit="10" stroke-width=".5"/>
    </g>
    <g>
        <title>.id(inferior_salivatory_nucleus)</title>
        <path d="M2942.96926,1062.54848c-3.70329-1.40944-11.35198,8.48913-6.52962,11.74972,3.27327,2.21319,6.81657-1.68995,7.71655-3.28226s3.30667-6.75724-1.18693-8.46746Z" fill="#bfbac1" stroke="#a6a8ab" stroke-linecap="round" stroke-miterlimit="10" stroke-width=".5"/>
    </g>
    <g>
        <title>.id(vagus_nerve_efferent_cn_x)</title>
        <path d="M3079.3641,1210.1842c-.01914-.56782-1.86569-56.92821-2.17193-73.1771-.19596-10.37476-1.07639-16.72921-5.16596-20.59275-3.14806-2.97489-7.90388-4.17706-15.39215-3.89361-7.0517.26614-13.1701,1.67793-20.25552,3.31121-9.70691,2.23909-20.70428,4.76767-37.98457,5.35195-8.42231-.35133-17.54281-1.70784-26.30167-3.4223l-1.00867,2.67686c4.33469.85543,8.70439,1.59424,13.14041,2.21141-.61066.11182-1.2261.22461-1.85293.33951-4.09551.75108-8.34842,1.53215-13.0789,2.3473l-1.00183,3.01597c5.26874-.89684,10.08061-1.78255,14.58657-2.60894,1.24524-.22843,2.4531-.44996,3.63385-.66517-7.33161,2.65458-14.20043,6.52172-20.63399,10.38563l-.95032,3.84725c10.47393-6.36715,21.29893-12.67115,33.40459-14.38959,17.75981-.58582,29.46821-3.27994,38.88688-5.45238,6.89949-1.59044,12.85839-2.96487,19.55646-3.21733,6.32803-.24153,10.35926.67445,12.68795,2.87555,3.13166,2.95849,3.8207,8.5911,3.9966,17.95053.30806,16.2735,2.15552,72.53819,2.17375,73.10601" fill="#bfbac1" stroke="#a6a8ab" stroke-linejoin="round" stroke-width=".5"/>
        <path d="M2942.20176,1110.6204c-4.08611-1.09556-5.92508-1.58314-6.70922-1.66155-.56573-.05648-1.8805-.40738-3.27333-.77742-2.38464-.63474-5.3658-1.42595-8.22307-1.81256-4.11404-.78808-13.67766-4.56752-15.97566-8.65247-.37882-.6735-1.23385-.91232-1.90628-.53404-.67386.37909-.91375,1.23314-.53422,1.90664,1.81891,3.23287,6.61254,6.012,11.07032,7.85526-.11458.05702-.23703.10589-.34588.1699-1.11068.65533-1.86188,1.65788-2.17196,2.89737-.51417,2.05711-.13033,3.94558,1.10997,5.46131,2.72479,3.33125,13.79439,4.74162,18.90955,4.49823.77196-.03464,1.36991-.68899,1.33411-1.46193-.03437-.77196-.66526-1.36347-1.46158-1.33429-4.55946.21054-14.67664-1.10594-16.61442-3.47474-.68603-.83856-.86506-1.79457-.56143-3.00953.12962-.51676.40818-.88771.87866-1.16484,1.27467-.75164,3.5655-.7128,6.03249-.35859.19192.03321.38956.06982.55713.09068.02506.00304.04941.00277.07448.00457,2.55651.4157,5.22544,1.12357,7.10666,1.62413,1.69861.45204,2.92673.7793,3.71588.85763.59079.05926,3.21891.76471,6.26237,1.58045,6.77581,1.81721,17.75928,4.77572,29.60729,7.11382l1.00828-2.67681c-11.92392-2.33406-23.07065-5.31209-29.89015-7.14121Z" fill="#bfbac1" stroke="#a6a8ab" stroke-linecap="round" stroke-miterlimit="10" stroke-width=".5"/>
        <path d="M2938.00322,1129.75302c-.62087.06472-2.78638-.25977-4.87455-.57414-4.85593-.73079-10.75021-1.60793-15.11418-1.05877-7.72895-1.15016-9.99615-5.06369-10.53395-8.1511-.13176-.76194-.85933-1.27235-1.6184-1.13924-.76194.13212-1.27252.85673-1.13933,1.61867.4755,2.73858,2.27221,7.16591,8.62409,9.40375-.66455.57369-1.15866,1.28273-1.3871,2.19487-.51417,2.05711-.13033,3.94558,1.10997,5.46131,2.46628,3.01589,7.9753,4.06946,12.79184,4.06946.50414,0,1.00112-.01092,1.48592-.03366.77196-.03464,1.36991-.68908,1.33411-1.46193-.03437-.77196-.65309-1.35622-1.46158-1.33438-4.56304.20875-10.04485-.64253-11.98264-3.01222-.68675-.83856-.86506-1.79457-.56143-3.00864.84214-3.36589,12.89138-1.55306,18.0359-.7793,3.01911.45482,4.63752.68728,5.57777.59061,10.84116-1.11561,20.0009-2.81189,30.23946-4.37629l.62087-2.84698c-10.54649,1.63628-19.82438,3.2725-31.14677,4.43797Z" fill="#bfbac1" stroke="#a6a8ab" stroke-miterlimit="10" stroke-width=".5"/>
        <path d="M2961.83028,1137.91763c-9.12751,5.53883-16.60153,10.1059-24.02758,11.88954-3.80397.91357-8.53314.44927-13.11552-.04467-1.75232-.18959-3.51824-.37945-5.19465-.46117-.10742-.0512-.21054-.11127-.33299-.134-4.22003-.78109-8.70071-1.96411-13.00381-6.98429-.50271-.58515-1.38639-.65434-1.97431-.15128-.58649.50307-.65381,1.38719-.1511,1.97413,2.79211,3.25713,5.68805,5.09914,8.49734,6.23766-1.45656.74135-2.46699,1.97243-2.76704,3.97127-.63662,4.24267,2.68111,7.29043,11.45272,10.52151.15969.05917.32296.08656.48409.08656.57002,0,1.10567-.35,1.31334-.91599.26782-.72551-.10384-1.53032-.82925-1.79734-8.99647-3.31486-9.92812-5.64078-9.65171-7.47912.47335-3.15177,4.81654-2.84367,11.8566-2.0845,4.60601.4977,9.825,1.06002,14.10518-.02453,8.15003-2.06991,16.23489-6.99611,24.79596-12.21224.54567-.33236-.00143.00027,1.51793-.91472l.95028-3.8472c-2.34074,1.40418-2.59496,1.56288-3.92549,2.37039Z" fill="#bfbac1" stroke="#a6a8ab" stroke-linejoin="round" stroke-width=".5"/>
    </g>
    <g>
        <title>.id(vagus_nerve_afferent_cn_x)</title>
        <path d="M2790.80774,1131.00922c9.78025,4.10177,18.5151,10.76734,22.05008,17.65136.41288.8057,1.23042,1.2687,2.07714,1.2687.3591,0,.72276-.08385,1.06363-.25884,1.14657-.58787,1.59864-1.99511,1.00986-3.14077-3.7316-7.26879-12.17892-14.16258-21.93983-18.73942,6.35469.03241,13.166-.02068,20.16677-.17192,1.08106-.02336,2.157.09541,3.20594.35808,8.64658,2.16549,27.0592,9.08048,29.21107,16.82885.2871,1.03265,1.22496,1.70983,2.24758,1.70983.20815,0,.42096-.02888.63185-.0875,1.24387-.34594,1.93632-1.79722,1.57039-3.03533-2.10289-7.11442-11.99675-13.62593-21.17401-17.20618,5.92404-.25093,12.44005-.53956,18.45158-.98776,5.10694-.3808,12.45691,1.44734,13.93114,5.90877l-1.30607-15.99649c-.63367,4.28034-2.22422,4.43557-12.8282,4.55194-18.01963.19775-42.81964,1.1908-61.86327,1.51122l3.49437,9.83545Z" fill="#929497" stroke="#808184" stroke-linejoin="round" stroke-width=".5"/>
        <path d="M2688.93221,1210.49455c.02187-.57602,2.18469-57.32879,3.50899-73.2195,1.30881-15.70204,2.68324-18.45181,16.86411-17.91771,10.06943.37915,54.21185,6.51242,69.68463,8.13675,3.93177.6758,7.95627,1.89563,11.81781,3.51513l-3.49437-9.83545c-11.93963.20089-17.58902.35094-22.55479-.06288-18.92751-1.57729-44.98648-6.96327-55.24184-7.34971-18.82823-.69633-21.24533,6.11658-22.6553,23.04904-1.33524,16.01648-3.50352,73.10557-3.52539,73.68432" fill="#929497" stroke="#808184" stroke-linejoin="round" stroke-width=".5"/>
    </g>
    <g>
        <title>.id(anterior_nucleus_vagus_nerve_cn_x)</title>
        <path d="M2867.53766,1178.10804c1.8212-.31559,3.13878-2.04926,2.99044-4.01578l-6.51045-86.31771c-.15653-2.07515-1.88574-3.62409-3.86218-3.45974-1.98408.16101-3.45221,1.97953-3.29568,4.05468l6.51045,86.31771c.15653,2.07515,1.88574,3.62409,3.86218,3.45974.10347-.0086.20493-.02152.30524-.0389Z" fill="#808184" stroke="#58595b" stroke-miterlimit="10" stroke-width=".5"/>
    </g>
    <g>
        <title>.id(accessory_nerve_cn_xi)</title>
        <path d="M3027.57308,1223.3256c.00273-.0319.86147-12.69081.56526-33.44124-.17408-12.18029-4.93628-21.20431-13.06528-24.75887-10.05576-4.39672-23.4929-.34543-35.94024,10.84232-28.77279,25.86352-27.61178,81.43922-24.43363,110.04795l-11.13033,1.23589c-3.41602-30.74329-4.41936-90.40309,28.07751-119.61245,15.80503-14.2073,33.71819-18.98135,47.91273-12.77545,12.32976,5.39108,19.53823,18.09726,19.77702,34.8602.30715,21.45587-.56526,32.99464-.63271,33.60165" fill="#f5d0b9" stroke-width="0"/>
        <path d="M2943.56885,1287.25165c-3.41602-30.74329-4.41936-90.40309,28.07751-119.61245,15.80503-14.2073,33.71819-18.98135,47.91273-12.77545,12.32976,5.39108,19.53823,18.09726,19.77702,34.8602.30715,21.45587-.56526,32.99464-.63271,33.60165" fill="none" stroke="#c4836b" stroke-linejoin="round" stroke-width=".5"/>
        <path d="M3027.57308,1223.3256c.00273-.0319.86147-12.69081.56526-33.44124-.17408-12.18029-4.93628-21.20431-13.06528-24.75887-10.05576-4.39672-23.4929-.34543-35.94024,10.84232-28.77279,25.86352-27.61178,81.43922-24.43363,110.04795" fill="none" stroke="#c4836b" stroke-linejoin="round" stroke-width=".5"/>
        <path d="M2953.67662,1177.10473c-18.95206-.16469-23.30643-1.70166-26.69604-4.25191-.46025-.34628-.60459-.91761-.24435-1.33011.46855-.53653,1.41112-.58674,1.9684-.15066,3.12734,2.44647,15.71291,3.2866,26.2084,2.91l-1.23642,2.82267Z" fill="#bfbac1" stroke="#a6a8ab" stroke-miterlimit="10" stroke-width=".5"/>
        <path d="M2954.91303,1174.28205c7.72395-.35417,15.05554-1.62733,19.01463-3.85481.67263-.37915,1.52755-.13945,1.9067.5341s.13945,1.52755-.5341,1.9067c-4.3678,2.45664-12.82975,3.92337-21.62366,4.23668l1.23642-2.82267Z" fill="#bfbac1" stroke="#a6a8ab" stroke-miterlimit="10" stroke-width=".5"/>
        <path d="M2945.57914,1192.54225c-2.77774.19232-8.54481,1.58114-12.79686,2.97198-5.53326,1.81009-15.30136,4.27096-19.70902,4.27096v-2.7999c3.96197,0,13.51406-2.39069,18.83861-4.13243,4.79866-1.56947,12.07518-3.4756,15.15763-3.4756.0401,0-.0401,0,0,0l-1.49035,3.16498Z" fill="#bfbac1" stroke="#a6a8ab" stroke-miterlimit="10" stroke-width=".5"/>
        <path d="M2945.93397,1192.54154c-.19596,0-.38553-.00729-.57146-.02187l1.70698-3.1424c4.38669.3272,14.31058-5.49374,17.94991-7.70577l.33358-.20234,1.45281,2.3934-.33176.20143c-6.68348,4.06222-15.84166,8.47755-20.54006,8.47755Z" fill="#bfbac1" stroke="#a6a8ab" stroke-miterlimit="10" stroke-width=".5"/>
        <path d="M2951.52191,1216.30113l-.75406-3.32355c-.90158.99602-1.66638,1.70031-4.041,4.19577-3.88847,4.08683-9.9625,8.89111-16.73831,11.27056-4.70053,1.08822-14.7862,1.78105-21.11445,1.85848l.03437,2.79989c6.52947-.0802,15.57607-.64521,20.46995-1.77899.18404.01182,11.46131-4.2535,19.37645-12.21958,1.19948-1.20682,2.50208-2.62856,2.91098-2.85369-.00143.00098-.05228.02829-.14394.05111Z" fill="#bfbac1" stroke="#a6a8ab" stroke-miterlimit="10" stroke-width=".5"/>
        <path d="M2947.1472,1243.34495v-2.79989c-.88225,0-1.22884.40559-3.93072,3.56183-3.92857,4.59177-13.75572,15.31191-18.6983,15.06307-2.59446-.18225-4.30811,1.10558-5.43669,1.96509-.27499.21054-.65309.4985-.76194.54138-3.47384.68809-10.83114-5.96437-10.85692-6.01817l-2.52786,1.20306c.13534.28438,7.78266,7.68151,12.72954,7.68151.38956,0,.7913-.03822,1.20449-.1212.70465-.14036,1.29114-.58784,1.91058-1.06002.93166-.71092,1.99508-1.52021,3.52898-1.39901.11171.00555.87079.01092.9825.01092,5.82411,0,13.39409-8.26478,20.05246-16.04566,1.07201-1.25229,2.18055-2.54648,2.48275-2.78163-.01003.00824-.26066.19872-.67887.19872Z" fill="#bfbac1" stroke="#a6a8ab" stroke-miterlimit="10" stroke-width=".5"/>
        <path d="M2947.27941,1286.83998c-2.80354-25.22552-5.79758-87.06757,26.86244-116.42458,14.68398-13.19835,31.09966-17.73634,43.92251-12.13107,10.9289,4.7786,17.32164,16.2571,17.53947,31.4934.30806,21.56068-.59516,33.42939-.60428,33.54787h-3.72226c.00911-.11757.89958-12.12664.59334-33.49501-.19505-13.70784-5.77297-23.95955-15.30192-28.12568-11.43748-5.00099-26.36572-.70635-39.93137,11.4867-10.45132,9.39406-33.87131,39.23322-25.64842,113.23642l-3.7095.41196Z" fill="#bfbac1" stroke-width="0"/>
        <path d="M2947.27941,1286.83998c-2.80354-25.22552-5.79758-87.06757,26.86244-116.42458,14.68398-13.19835,31.09966-17.73634,43.92251-12.13107,10.9289,4.7786,17.32164,16.2571,17.53947,31.4934.30806,21.56068-.59516,33.42939-.60428,33.54787" fill="none" stroke="#a6a8ab" stroke-miterlimit="10" stroke-width=".5"/>
        <path d="M3031.27729,1223.3256c.00911-.11757.89958-12.12664.59334-33.49501-.19505-13.70784-5.77297-23.95955-15.30192-28.12568-11.43748-5.00099-26.36572-.70635-39.93137,11.4867-10.45132,9.39406-33.87131,39.23322-25.64842,113.23642" fill="none" stroke="#a6a8ab" stroke-miterlimit="10" stroke-width=".5"/>
        <line x1="2936.38737" y1="1225.42375" x2="2935.75202" y2="1228.42619" fill="#bfbac1" stroke="#a6a8ab" stroke-miterlimit="10" stroke-width=".5"/>
        <line x1="2930.8039" y1="1256.38518" x2="2929.88659" y2="1260.72009" fill="#bfbac1" stroke="#a6a8ab" stroke-miterlimit="10" stroke-width=".5"/>
    </g>
    <g>
        <title>.id(trigeminal_nerve_efferent_cn_v_and_ganglion)</title>
        <path d="M3017.39199,933.44628c12.41442-2.48288,21.51832-8.27628,25.24265-12.41442,3.72433-4.13814,6.6338-12.00047,13.60413-18.15609,3.98296-3.51742,12.87996-4.81059,16.29392-9.62117,1.63395-2.30238,2.76583-5.51478,4.2894-8.07285,2.15945-3.62568,4.09033-5.53129,11.3838-2.47941,3.07385,1.28622,4.50555,2.83189,3.6726,6.46584-1.0836,4.72748-5.12355,11.95523-3.98296,13.24205,2.09295,2.36128,4.81059.62072,13.91449-2.48288,7.4419-2.53701,6.41412,17.794-1.60184,18.06886-7.86872.26981-8.64396-.25162-9.57114,3.03565-2.27598,8.06937,14.43485,6.6658,16.96637,15.10421,1.24144,4.13814-2.06907,17.58709-8.06937,14.27658-4.01022-2.21253-11.37988-10.34535-16.34565-9.51772-4.96577.82763-3.7685,9.27156-13.65586,11.17298-10.75916,2.06907-16.35584-2.5163-19.86307-2.06907-7.70728.98281-17.17328,9.00045-22.13905,9.82808l-10.13844-26.38064Z" fill="#f5d0b9" stroke="#c4836b" stroke-linecap="round" stroke-linejoin="round" stroke-width=".5"/>
        <path d="M3021.7848,945.8315l-1.74994-5.31908c10.5698-3.47891,15.93901-5.8755,21.1314-8.1928,1.56583-.69861,3.09429-1.38081,4.71754-2.07121,17.22691-7.31997,26.96936-5.86155,55.76566,9.13533,1.37732.7173,1.9154,2.4211,1.19101,3.79471h0c-.7182,1.36185-2.40792,1.88513-3.77365,1.17434-28.50712-14.8365-36.34706-15.17455-50.99195-8.95027-1.59226.67628-3.09156,1.34572-4.6264,2.03066-5.07208,2.26398-10.82135,4.8301-21.66367,8.39833Z" fill="#bfbac1" stroke="#a6a8ab" stroke-linecap="round" stroke-miterlimit="10" stroke-width=".5"/>
        <path d="M2939.46566,965.64618l-3.1036-5.35372c26.11599-2.58845,68.16581-14.67743,83.67281-19.78004l1.74994,5.31908c-15.68199,5.16049-55.64992,17.17109-82.31914,19.81468Z" fill="#bfbac1" stroke="#a6a8ab" stroke-linecap="round" stroke-miterlimit="10" stroke-width=".5"/>
        <path d="M2962.97546,949.58503c4.34505,12.41442,10.55226,21.10451,14.27658,26.691" fill="none" stroke="#c4836b" stroke-linejoin="round" stroke-width=".5"/>
        <ellipse cx="3102.99988" cy="941.92298" rx="9.18391" ry="4.47221" transform="translate(1519.26651 3771.69608) rotate(-77.65145)" fill="none" stroke="#c4836b" stroke-linecap="round" stroke-linejoin="round" stroke-width=".5"/>
        <ellipse cx="3102.17225" cy="909.02477" rx="9.18391" ry="4.47221" transform="translate(1550.75298 3745.02494) rotate(-77.65145)" fill="none" stroke="#c4836b" stroke-linecap="round" stroke-linejoin="round" stroke-width=".5"/>
        <ellipse cx="3085.46439" cy="885.23696" rx="3.44077" ry="7.13788" transform="translate(1189.9481 3475.74907) rotate(-69.81499)" fill="none" stroke="#c4836b" stroke-linecap="round" stroke-linejoin="round" stroke-width=".5"/>
    </g>
    <g>
        <title>.id(trigeminal_nerve_afferent_cn_v_and_ganglion)</title>
        <path d="M2740.96428,933.44628c-12.41442-2.48288-14.48349.72417-18.20781-3.41396-3.72433-4.13814-13.66864-21.00092-20.63897-27.15654-3.98296-3.51742-12.87996-4.81059-16.29392-9.62117-3.43547-4.84089-1.15037-12.71754-9.3884-12.49201-2.03231.05564-4.11228.23277-6.67275,1.70698-2.22608,1.28168-3.52772,2.42899-3.02601,5.5089.83618,5.13319,4.98517,13.00928,3.72433,14.43176-2.09295,2.36128-6.20107-.95924-13.91449-2.48288-4.18987-.82763-7.96592,8.897-5.62286,13.00604.9424,1.6527,2.71323,2.82234,5.15732,3.23616,7.76287,1.31435,13.70759,5.48303,13.60413,8.897-.20211,6.66969-17.47227,2.7652-18.73801,11.44454-.36209,2.48288.31036,10.39708,3.87951,10.86262,14.22378,1.85528,17.69593,4.34459,27.58329,6.246,10.75916,2.06907,24.42521-.75759,27.93244-.31036,7.70728.98281,15.31112,5.17267,20.27688,6.0003l10.34535-25.86337Z" fill="#f5d0b9" stroke="#c4836b" stroke-linecap="round" stroke-linejoin="round" stroke-width=".5"/>
        <path d="M2789.73621,962.38739c-19.20135-.77323-40.99884-2.78448-51.83402-6.82096-1.69799-.63253-3.30392-1.2368-4.8178-1.81146l2.65043-6.98061c1.50112.56919,3.09064,1.16799,4.77405,1.79505,9.84708,3.66854,32.04935,6.17182,52.57677,6.88669l-3.34943,6.93128Z" fill="#929497" stroke="#808184" stroke-linejoin="round" stroke-width=".5"/>
        <path d="M2793.08564,955.45611c9.53401.33202,21.23241.08076,28.75315-.13806l.21692,7.46366c-2.58389.07474-5.72831.11757-9.26555.11757-5.99193,0-15.56309-.21024-23.05395-.51189l3.34943-6.93128Z" fill="#929497" stroke="#808184" stroke-linejoin="round" stroke-width=".5"/>
        <path d="M2735.73482,946.77437c-4.63824-1.76087-8.41006-3.24422-11.31592-4.41181-3.24456-3.02599-7.88007-10.21679-11.45878-15.77262-4.94539-7.67648-9.61554-14.92778-13.92294-18.31191-2.02883-1.59408-4.19711-3.09839-6.2943-4.55303-6.94506-4.81825-13.50459-9.369-15.15154-16.86456-.33176-1.51023-1.82376-2.46586-3.33491-2.1341-1.51023.33176-2.46541,1.82513-2.13365,3.33536,2.11815,9.64243,9.90082,15.04217,17.42828,20.26418,2.02974,1.40815,4.12876,2.86415,6.02635,4.35525,3.56823,2.80354,8.19736,9.99059,12.67519,16.94112,1.99078,3.09064,3.78994,5.84531,5.45784,8.26099l-20.9457-15.37786c-15.09959-11.17408-28.7254-16.3332-36.44335-17.43557-1.52026-.21783-2.94846.84489-3.1672,2.37563-.21874,1.53074.84489,2.94892,2.37609,3.16766,2.43168.34771,15.49423,2.77028,33.91232,16.40019l16.45283,12.07952c-21.03325-4.37906-41.05066-6.67881-49.91672-.49439-1.26779.88499-1.57859,2.63037-.69359,3.89862.88408,1.26688,2.62764,1.58041,3.89817.69405,9.68521-6.75685,42.01689.37944,57.28264,3.9847,2.85857,1.19733,8.34148,3.43664,16.61848,6.57918l2.65043-6.98061Z" fill="#929497" stroke="#808184" stroke-linejoin="round" stroke-width=".5"/>
        <ellipse cx="2673.71952" cy="884.56451" rx="7.13788" ry="3.44077" transform="translate(-135.16288 681.06977) rotate(-14.16245)" fill="none" stroke="#c4836b" stroke-linecap="round" stroke-linejoin="round" stroke-width=".5"/>
    </g>
    <g>
        <title>.id(spinal_tract_and_spinal_nucleus_of_trigeminal_nerve)</title>
        <path d="M2841.00081,1293.47334c-1.97688,0-3.62656-1.55125-3.72591-3.54818-2.4408-49.1313-2.8163-56.68246-17.23961-106.84823-13.7206-47.72588-18.86195-93.1249-17.83204-115.10939.88089-18.77333,16.15321-49.61249,25.0671-67.25062,3.64674-7.21588.93108-10.08671.93108-10.08671,1.00986-1.79688,5.70667-2.79064,7.50491-1.77941,1.79733,1.01077,8.40316-3.27625,7.39239-1.47937-9.12975,16.23021-32.57872,62.64468-33.43729,80.9461-1.00166,21.39207,4.06222,65.78305,17.55041,112.69594,14.11798,49.10761,14.98475,57.51459,17.52033,108.54166.10208,2.05891-1.4838,3.81158-3.54362,3.91366-.06289.00273-.12578.00456-.18775.00456Z" fill="#929497" stroke="#808184" stroke-miterlimit="10" stroke-width=".5"/>
    </g>
    <g>
        <title>.id(mesencephalic_nucleus_of_trigeminal_nerve)</title>
        <path d="M2834.49506,946.48271l-7.4664-.00273c.00182-4.30238-1.58679-10.96263-3.42605-18.67465-1.72715-7.24128-3.40556-9.27989-4.47922-17.4809l6.82793-9.31081c1.02444,7.81639,3.22922,17.99509,4.91353,25.05955,1.94954,8.17093,3.63203,15.2281,3.63021,20.40955Z" fill="#929497" stroke="#808184" stroke-linejoin="round" stroke-width=".5"/>
        <path d="M2827.03758,870.21034c-.86396,6.56811-1.41246,12.90143-1.54285,21.39453-.05469,3.51355-.10394,5.12915.45659,9.40874l-6.82793,9.31081c-.60883-4.6428-1.1543-14.95446-1.09506-18.83485.12578-8.16181.46117-16.23692,1.25024-22.59827l7.75901,1.31903Z" fill="#929497" stroke="#808184" stroke-linejoin="round" stroke-width=".5"/>
        <path d="M2830.70168,824.23272c-2.05162-.31171-3.94283,1.09234-4.2518,3.13029-.87856,5.78875-2.66757,16.38572-3.38589,20.51437h-.00006l-.57876,3.30528c-1.17483,6.69966-2.41754,11.3473-3.20661,17.70865l7.75901,1.31903c.73643-5.5986,1.70562-11.48683,2.80189-17.73801l.57967-3.31349h-.00011c0-.00017.00011-.00028.00011-.00046.72367-4.15519,2.52556-14.8298,3.41329-20.67432.30897-2.0384-1.0928-3.94192-3.13075-4.25134Z" fill="#929497" stroke="#808184" stroke-miterlimit="10" stroke-width=".5"/>
    </g>
    <g>
        <title>.id(principal_sensory_nucleus_of_trigeminal_nerve)</title>
        <path d="M2847.36528,965.0127c-.89308-9.37635-4.3532-17.28313-8.82738-21.47615-2.4752-2.31963-5.25961-3.50705-8.09426-3.16755-7.95845.95318-13.28574,13.53188-11.89877,28.09537.16246,1.70494.41276,3.35906.73552,4.95365,2.43373,12.02643,9.15937,20.53163,16.18612,19.69004,7.95845-.95318,13.28574-13.53188,11.89877-28.09537Z" fill="#929497" stroke="#808184" stroke-miterlimit="10" stroke-width=".5"/>
    </g>
    <g>
        <title>.id(accessory_nucleus)</title>
        <path d="M2902.46658,1292.21045c-1.75834-.1362-3.22522-1.50954-3.41907-3.32635-2.38079-22.31247,6.37056-87.09271,11.19583-104.20948.55868-1.98432,2.62039-3.14466,4.6052-2.58046,1.98523.55875,3.14005,2.62095,2.58046,4.6052-4.58267,16.26255-13.21322,80.25043-10.95749,101.39223.21875,2.05003-1.26572,3.8895-3.31575,4.10825-.23321.0249-.46382.02806-.68918.01061Z" fill="#bfbac1" stroke="#a6a8ab" stroke-miterlimit="10" stroke-width=".5"/>
    </g>
    <g>
        <title>.id(nucleus_tractus_solitarius)</title>
        <path d="M2871.33021,1210.0973c-5.13885-1.30023-9.72186-4.5158-13.75238-12.02165-4.9304-9.18278-8.58469-25.72177-10.87342-44.12906-.24025-1.93225,1.13746-3.69352,3.07216-3.91313h0c2.15374-.24448,4.11629,1.27277,4.41946,3.41903,2.2584,15.98825,6.19682,22.55902,9.96046,31.18033,1.55262,3.55655,4.08896,7.02994,9.6067,8.34449,3.17696.75688,5.38234,3.65472,5.39741,6.92056l.01827,3.95776c-.87557,5.39555-3.84569,7.25449-7.84866,6.24166Z" fill="#929497" stroke="#808184" stroke-miterlimit="10" stroke-width=".5"/>
    </g>
    <g>
        <title>.id(sve_nucleus_ambiguus_ix_x_xi)</title>
        <path d="M2925.77615,1173.18978c.00091.00273.00273.00547.00365.0082-.00091-.00273-.00273-.00547-.00365-.0082Z" fill="#dca1a1" stroke-width="0"/>
        <path d="M2913.21629,1172.37976c-.56564,1.94414.59759,3.98117,2.58602,4.4658,1.89482.46182,3.7883-.82265,4.33314-2.69529l39.35868-100.38641c.54484-1.87263-.36401-3.97244-2.21082-4.59923-1.93806-.65776-4.01255.43727-4.57819,2.3814l-39.48882,100.83372Z" fill="#bfbac1" stroke="#a6a8ab" stroke-miterlimit="10" stroke-width=".5"/>
    </g>
    <g>
        <title>.id(dorsal_vagal_nucleus)</title>
        <path d="M2899.41446,1173.00133c-1.8212-.31559-3.13878-2.04926-2.99044-4.01578l6.09645-75.20072c.15653-2.07515,1.88574-3.62409,3.86218-3.45974,1.98408.16101,3.45221,1.97953,3.29568,4.05468l-6.09645,75.20072c-.15653,2.07515-1.88574,3.62409-3.86218,3.45974-.10347-.0086-.20493-.02152-.30524-.0389Z" fill="#bfbac1" stroke="#a6a8ab" stroke-linecap="round" stroke-miterlimit="10" stroke-width=".5"/>
    </g>
    <g>
        <title>.id(facial_nerve_efferent_cn_vii)</title>
        <path d="M3109.77381,1032.97881c.74463-12.84199-1.58132-16.38378-3.03505-17.35081-2.63767-1.76087-8.39423,1.04814-12.59863,3.09794-7.80727,3.80611-16.26585,7.41382-24.16882,10.23377l-.79994-5.61235c7.70793-2.75068,14.89295-5.93934,22.5152-9.65431,5.72102-2.79078,12.84199-6.26332,18.15651-2.72607,4.47783,2.98218,6.23233,10.07945,5.52142,22.3363" fill="#bfbac1" stroke="#a6a8ab" stroke-miterlimit="10" stroke-width=".5"/>
        <path d="M3012.30779,1039.60214c-6.00356,0-11.88499-.38918-17.63791-1.16936-5.21335-.70635-7.82148-1.18373-14.46942-3.57714l-3.89046-7.32268c6.27334,2.2576,14.29401,4.69757,19.11272,5.35106,22.44932,3.04234,47.65454-.22463,73.74774-9.53667l.80176,5.61235c-20.30656,7.24766-39.30194,10.64243-57.66443,10.64243Z" fill="#bfbac1" stroke="#a6a8ab" stroke-linecap="round" stroke-miterlimit="10" stroke-width=".5"/>
        <path d="M2947.24842,1050.35332c-.28892,0-.5824-.06653-.85674-.20872-.91507-.47485-1.27326-1.60046-.79932-2.51645,6.36813-12.29604,16.93064-19.65945,27.59888-19.21376,1.03082.04284,1.83014.91234,1.78731,1.94225-.04375,1.029-.90413,1.811-1.94225,1.78731-9.21451-.36184-18.4354,6.20772-24.12817,17.20133-.33267.64073-.98434,1.00804-1.65971,1.00804Z" fill="#bfbac1" stroke="#a6a8ab" stroke-linecap="round" stroke-miterlimit="10" stroke-width=".5"/>
    </g>
    <g>
        <title>.id(superior_salivatory_nucleus)</title>
        <path d="M2949.04146,1044.96914c-3.70329-1.40944-11.35198,8.48913-6.52962,11.74972,3.27327,2.21319,6.81657-1.68995,7.71655-3.28226s3.30667-6.75724-1.18693-8.46746Z" fill="#bfbac1" stroke="#a6a8ab" stroke-linecap="round" stroke-miterlimit="10" stroke-width=".5"/>
    </g>
    <g>
        <title>.id(facial_nucleus)</title>
        <path d="M2936.28456,1019.31267c-4.20212-.51246-5.54769,6.70913-11.95901,5.88408-.93667-.42403-1.92347-.86613-2.95538-1.32766-10.46162-4.68004-27.97118-12.51193-29.81874-20.12317l.00072-.00018c-.25923-1.06637-.39386-2.75111,1.41288-5.04749,3.79752-4.83283,24.98859,6.31983,42.01549,15.27826,13.29455,6.99423,31.59827,15.97664,45.29813,20.90651l-3.96867-7.35004c-13.33393-4.79685-25.59012-11.60328-38.72211-18.51283-24.58184-12.93175-42.34347-22.2766-49.02333-13.78481-2.45482,3.11928-3.28049,6.426-2.45553,9.83011h.00072c2.4942,10.2809,20.11118,18.16113,32.97391,23.91497.88081.39413,1.72654.77286,2.5386,1.13933l-.00215.00385c7.44824,3.10352,2.87088,9.05214,8.25028,14.84555,2.97256,3.20082,8.25171.97561,10.13866-3.62091,2.62597-6.3978,4.75854-21.00103-3.72448-22.03554Z" fill="#bfbac1" stroke="#a6a8ab" stroke-linecap="round" stroke-miterlimit="10" stroke-width=".5"/>
    </g>
    <g>
        <title>.id(abducens_nucleus)</title>
        <path d="M2890.26534,1007.48765c0-7.04535,3.04607-12.75674,6.8036-12.75674s6.8036,5.71139,6.8036,12.75674-3.04607,12.75674-6.8036,12.75674c-3.75752,0-6.8036-5.71139-6.8036-12.75674Z" fill="#bfbac1" stroke="#a6a8ab" stroke-linecap="round" stroke-miterlimit="10" stroke-width=".5"/>
    </g>
    <g>
        <title>.id(red_nucleus)</title>
        <ellipse cx="2917.34116" cy="751.28086" rx="17.38019" ry="10.75916" fill="#bfbac1" stroke="#a6a8ab" stroke-linecap="round" stroke-miterlimit="10" stroke-width=".5"/>
        <path d="M2900.58351,790.94847l-.60755-39.66761h-.01499c0,5.94212,7.78137,10.75916,17.38019,10.75916s17.38019-4.81704,17.38019-10.75916l-.35776,39.14715" fill="url(#linear-gradient)" stroke="#a6a8ab" stroke-linecap="round" stroke-miterlimit="10" stroke-width=".5"/>
    </g>
    <g>
        <title>.id(oculomotor_nerve_cn_iii)</title>
        <path d="M2905.36284,790.37475c-.01831,0-.03735,0-.05566-.00046-1.54565-.03053-2.77515-1.30835-2.74414-2.85413.00366-.20598.39722-20.66885.00269-28.51076-.11108-2.21112-.29346-4.16293-.55786-5.9671-.22314-1.52983.83594-2.95165,2.36621-3.17495,1.52197-.22011,2.95117.83532,3.17529,2.3656.28906,1.98053.48853,4.10506.60889,6.49482.40454,8.03695.02002,28.05368.00269,28.90176-.02905,1.52755-1.27686,2.74521-2.7981,2.74521Z" fill="none" stroke="#a6a8ab" stroke-dasharray="0 0 2.91654 1.94436" stroke-linecap="round" stroke-miterlimit="10" stroke-width=".5"/>
        <path d="M2904.775,755.43798c-1.36714,0-2.56293-1.00257-2.76709-2.39523-.96155-6.57912-2.84912-9.93044-5.23887-14.17312-.41743-.74144-.8458-1.50203-1.28238-2.30135-3.8371-7.03074-7.75988-16.65038-7.75988-34.68703,0-1.54623,1.25367-2.7999,2.7999-2.7999,1.54669,0,2.7999,1.25367,2.7999,2.7999,0,16.73332,3.40053,25.27109,7.07631,32.00471.42381.77653.83942,1.51524,1.24501,2.23527,2.46267,4.37211,4.78863,8.50178,5.90148,16.11127.2233,1.53028-.83578,2.95211-2.36606,3.17541-.13671.02005-.27343.03008-.40832.03008Z" fill="#bfbac1" stroke="#a6a8ab" stroke-linecap="round" stroke-miterlimit="10" stroke-width=".5"/>
    </g>
    <g>
        <title>.id(oculomotor_nucleus)</title>
        <path d="M2895.52502,834.92104c-3.3504,0-6.06645-2.71605-6.06645-6.06645v-57.99856c0-2.9374,2.68368-4.74266,6.03408-4.74266,3.3504,0,6.09882,1.99923,6.09882,4.74266v57.99856c0,3.3504-2.71605,6.06645-6.06645,6.06645Z" fill="url(#linear-gradient-2)" stroke-width="0"/>
        <path d="M2901.59147,807.74715v21.10744c0,3.3504-2.71605,6.06645-6.06645,6.06645s-6.06645-2.71605-6.06645-6.06645v-57.99856c0-2.9374,2.68368-4.74266,6.03408-4.74266,3.3504,0,6.09882,1.99923,6.09882,4.74266v24.93137" fill="none" stroke="#a6a8ab" stroke-linecap="round" stroke-miterlimit="10" stroke-width=".5"/>
        <ellipse cx="2895.49265" cy="770.55669" rx="6.03408" ry="4.44332" fill="#bfbac1" stroke="#a6a8ab" stroke-linecap="round" stroke-miterlimit="10" stroke-width=".5"/>
    </g>
    <g>
        <title>.id(accessory_oculomotor_nucleus)</title>
        <path d="M2887.60089,808.986c-2.35642,0-4.26668-1.47795-4.26668-3.30108v-31.56017c0-1.82313,1.91026-3.30108,4.26668-3.30108s4.26668,1.47795,4.26668,3.30108v31.56017c0,1.82313-1.91026,3.30108-4.26668,3.30108Z" fill="url(#linear-gradient-3)" stroke-width="0"/>
        <ellipse cx="2887.60089" cy="774.12475" rx="4.26668" ry="3.30108" fill="#bfbac1" stroke="#a6a8ab" stroke-linecap="round" stroke-miterlimit="10" stroke-width=".5"/>
        <path d="M2891.86757,799.44814v6.23677c0,1.82313-1.91026,3.30108-4.26668,3.30108s-4.26668-1.47795-4.26668-3.30108v-18.11012" fill="none" stroke="#a6a8ab" stroke-linecap="round" stroke-miterlimit="10" stroke-width=".5"/>
        <path d="M2883.33421,782.81801v-8.69327c0-1.82313,1.91026-3.30108,4.26668-3.30108s4.26668,1.47795,4.26668,3.30108v20.33271" fill="none" stroke="#a6a8ab" stroke-linecap="round" stroke-miterlimit="10" stroke-width=".5"/>
        <path d="M2879.17818,782.81805c6.20721,4.55194,9.93152,2.06905,10.34536,5.79336.41379,3.72437-5.37963,4.552,1.65521,8.6901,7.03484,4.13816,20.89762,10.75915,20.89762,10.75915,19.08719,6.05204,29.94978,4.03471,49.45076-4.1381" fill="none" stroke="#c4836b" stroke-linecap="round" stroke-linejoin="round" stroke-width=".5"/>
    </g>
    <g>
        <title>.id(motor_nucleus_of_trigemninal_nerve)</title>
        <path d="M2939.46568,965.64614l-3.10363-5.35371-6.10154.37716c.00251-.03634-1.60576-.06391-1.65822-.06067-3.23038.19721-6.45751-1.76925-8.14501-4.41301-3.06416-4.80048-9.42653-9.76621-15.1762-5.37257-5.30262,4.05208,2.17028,11.21805,2.71183,15.66826,1.02627,8.43353,2.50044,13.06819,8.62288,13.20314,10.19036.22467,8.73681-13.37694,13.64472-13.24683.04267.00114.55529-.05827.6503-.09348l8.55487-.70829Z" fill="#bfbac1" stroke="#a6a8ab" stroke-linecap="round" stroke-miterlimit="10" stroke-width=".5"/>
    </g>
    <g>
        <title>.id(trochlear_nerve_cn_iv)</title>
        <path d="M2842.56938,882.24772c-.55506,0-1.10465-.24654-1.47286-.7182-.63344-.81254-.48944-1.98554.32356-2.61989,8.02237-6.26104,23.40632-6.33669,38.28352-6.41051,9.56085-.04694,18.59217-.0916,23.67883-1.94134,3.2465-1.1803,4.92534-4.32608,4.49242-8.41428-.53501-5.04246-4.44229-10.61355-10.87604-11.50447-1.0208-.14127-1.73444-1.08368-1.59317-2.10494.14127-1.02171,1.09644-1.73854,2.10539-1.59272,8.72052,1.20764,13.4098,8.52274,14.07606,14.80884.61612,5.81854-2.03886,10.53745-6.92866,12.31564-5.6955,2.07167-15.04217,2.1177-24.9366,2.16646-13.58753.06745-28.98698.14309-36.00495,5.62031-.34087.26614-.74555.3951-1.14748.3951Z" fill="#bfbac1" stroke="#a6a8ab" stroke-linecap="round" stroke-miterlimit="10" stroke-width=".5"/>
    </g>
    <g>
        <title>.id(trochlear_nucleus)</title>
        <path d="M2889.93287,837.75846c3.1867-.17742,7.83217,4.25077,7.32188,11.03185-.51029,6.78108-2.25148,11.54376-7.31766,11.91717-4.6204.21859-4.60557-5.24902-4.49171-10.46567.11386-5.21665-.68482-12.19539,4.48749-12.48335Z" fill="#bfbac1" stroke="#a6a8ab" stroke-linecap="round" stroke-miterlimit="10" stroke-width=".5"/>
        <path d="M2917.34116,771.11466" fill="#fff" stroke="#231f20" stroke-miterlimit="10"/>
    </g>
    <g>
        <title>.id(brain_icons)</title>
        <circle cx="2875.01429" cy="846.68716" r="14.31496" fill="#f15a24" stroke-width="0">
            <title>.class(brain_9) id(brain9_1)</title>
        </circle>
        <path d="M2722.86051,733.20265c5.59038,5.59035,5.59038,14.65409,0,20.24445-5.59026,5.59023-14.654,5.59023-20.24438,0-5.59038-5.59035-5.59038-14.65409,0-20.24445s14.65412-5.59035,20.24438,0Z" fill="#f15a24" stroke-width="0">
            <title>.class(brain_20)</title>
        </path>
        <circle cx="2791.68398" cy="743.32483" r="14.31496" fill="#f15a24" stroke-width="0">
            <title>.class(brain_17)</title>
        </circle>
        <circle cx="2796.10637" cy="792.67747" r="14.31501" fill="#f15a24" stroke-width="0">
            <title>.class(brain_18)</title>
        </circle>
        <circle cx="2841.32865" cy="763.8933" r="14.31496" fill="#f15a24" stroke-width="0">
            <title>.class(brain_16)</title>
        </circle>
        <path d="M2845.03028,799.74316c5.59038,5.59023,5.59038,14.65397,0,20.24432-5.59038,5.59035-14.65412,5.59035-20.24438,0-5.59038-5.59035-5.59038-14.65409,0-20.24432,5.59026-5.59035,14.654-5.59035,20.24438,0Z" fill="#f15a24" stroke-width="0">
            <title>.class(brain_15)</title>
        </path>
        <path d="M2805.45348,831.90789c5.59026,5.59038,5.59026,14.65412,0,20.24445-5.59038,5.59032-14.65412,5.59032-20.24451,0-5.59038-5.59032-5.59038-14.65406,0-20.24445,5.59038-5.59035,14.65412-5.59035,20.24451,0Z" fill="#f15a24" stroke-width="0">
            <title>.class(brain_19)</title>
        </path>
        <circle cx="2867.17214" cy="943.4105" r="14.31496" fill="#f15a24" stroke-width="0">
            <title>class(brain_14)</title>
        </circle>
        <path d="M2723.37746,705.08812c-5.53774,5.53783-14.51665,5.53783-20.05452,0s-5.53786-14.51632,0-20.05415c5.53786-5.53774,14.51678-5.53774,20.05452,0,5.53786,5.53783,5.53786,14.51632,0,20.05415Z" fill="#f15a24" stroke-width="0">
            <title>.class(brain_32)</title>
        </path>
        <path d="M2902.86418,1221.34578c5.59038,5.59032,5.59038,14.65406,0,20.24432-5.59026,5.59038-14.654,5.59038-20.24438,0-5.59038-5.59026-5.59038-14.654,0-20.24432,5.59038-5.59032,14.65412-5.59032,20.24438,0Z" fill="#f15a24" stroke-width="0"/>
        <circle cx="2921.35622" cy="1202.55244" r="14.31496" fill="#f15a24" stroke-width="0">
            <title>.class(brain_33)</title>
        </circle>
        <path d="M2922.55819,1095.69389c5.59026,5.59038,5.59026,14.65412,0,20.24445-5.59038,5.59038-14.65412,5.59038-20.24451,0-5.59038-5.59032-5.59038-14.65406,0-20.24445,5.59038-5.59032,14.65412-5.59032,20.24451,0Z" fill="#f15a24" stroke-width="0">
            <title>.class(brain_11) id(brain11_1)</title>
        </path>
        <circle cx="2857.49998" cy="1061.48208" r="14.31496" fill="#f15a24" stroke-width="0">
            <title>.class(brain_13) id(brain13_1)</title>
        </circle>
        <path d="M2888.95497,1178.44799c5.59038,5.59032,5.59038,14.65406,0,20.24432-5.59026,5.59038-14.654,5.59038-20.24438,0-5.59038-5.59026-5.59038-14.654,0-20.24432,5.59038-5.59032,14.65412-5.59032,20.24438,0Z" fill="#f15a24" stroke-width="0">
            <title>.class(brain_12) id(brain12_1)</title>
        </path>
    </g>
</svg>